<?xml version="1.0" encoding="UTF-8"?>
<svg xmlns="http://www.w3.org/2000/svg" xmlns:xlink="http://www.w3.org/1999/xlink" width="960pt" height="405pt" viewBox="0 0 960 405" version="1.1">
<g id="surface1">
<path style=" stroke:none;fill-rule:nonzero;fill:rgb(100%,88.627451%,88.627451%);fill-opacity:1;" d="M 566.5 357 C 566.5 379.8125 564.359375 402.125 560.273438 423.75 C 529.039062 589.015625 383.980469 714 209.75 714 C 12.722656 714 -147 554.164062 -147 357 C -147 234.003906 -84.84375 125.535156 9.75 61.335938 C 66.792969 22.617188 135.632812 0 209.75 0 C 406.777344 0 566.5 159.835938 566.5 357 Z M 566.5 357 "/>
<path style=" stroke:none;fill-rule:nonzero;fill:rgb(85.882353%,85.490196%,100%);fill-opacity:1;" d="M 302 405.03125 L 1016.265625 82 L 1216.003906 523.648438 L 588.164062 443.699219 Z M 302 405.03125 "/>
<path style=" stroke:none;fill-rule:nonzero;fill:rgb(100%,84.705882%,51.372549%);fill-opacity:1;" d="M 812.246094 61.558594 L 673 487.152344 L 1136.109375 349.3125 Z M 812.246094 61.558594 "/>
<path style=" stroke:none;fill-rule:nonzero;fill:rgb(46.666667%,46.666667%,46.666667%);fill-opacity:1;" d="M 403.269531 376.980469 C 404.480469 376.980469 405.453125 377.285156 406.183594 377.898438 C 406.929688 378.496094 407.441406 379.285156 407.714844 380.257812 L 406.183594 380.5625 C 405.945312 379.855469 405.566406 379.296875 405.050781 378.886719 C 404.546875 378.46875 403.953125 378.257812 403.269531 378.257812 C 402.320312 378.257812 401.535156 378.652344 400.910156 379.445312 C 400.289062 380.238281 399.976562 381.34375 399.976562 382.757812 C 399.976562 384.160156 400.25 385.289062 400.804688 386.140625 C 401.367188 386.992188 402.191406 387.421875 403.269531 387.421875 C 404.167969 387.421875 404.878906 387.1875 405.394531 386.71875 C 405.921875 386.238281 406.183594 385.609375 406.183594 384.828125 L 407.714844 384.828125 C 407.714844 386.015625 407.308594 386.957031 406.492188 387.652344 C 405.6875 388.351562 404.578125 388.699219 403.160156 388.699219 C 401.757812 388.699219 400.617188 388.15625 399.742188 387.078125 C 398.878906 385.996094 398.445312 384.550781 398.445312 382.738281 C 398.445312 380.929688 398.894531 379.519531 399.796875 378.511719 C 400.695312 377.488281 401.851562 376.980469 403.269531 376.980469 Z M 413.480469 379.679688 C 414.679688 379.679688 415.648438 380.070312 416.378906 380.851562 C 417.121094 381.628906 417.496094 382.746094 417.496094 384.199219 C 417.496094 385.636719 417.121094 386.746094 416.378906 387.527344 C 415.648438 388.308594 414.679688 388.699219 413.480469 388.699219 C 412.28125 388.699219 411.308594 388.308594 410.566406 387.527344 C 409.832031 386.746094 409.464844 385.636719 409.464844 384.199219 C 409.464844 382.746094 409.832031 381.628906 410.566406 380.851562 C 411.308594 380.070312 412.28125 379.679688 413.480469 379.679688 Z M 416.054688 384.199219 C 416.054688 383.164062 415.839844 382.363281 415.40625 381.785156 C 414.972656 381.199219 414.339844 380.902344 413.5 380.902344 C 412.671875 380.902344 412.035156 381.199219 411.589844 381.785156 C 411.148438 382.363281 410.925781 383.164062 410.925781 384.199219 C 410.925781 385.21875 411.132812 386.023438 411.554688 386.609375 C 411.972656 387.1875 412.597656 387.472656 413.425781 387.472656 C 414.265625 387.472656 414.914062 387.1875 415.371094 386.609375 C 415.828125 386.023438 416.054688 385.21875 416.054688 384.199219 Z M 421.542969 381.210938 C 422.105469 380.191406 422.945312 379.679688 424.0625 379.679688 C 425.191406 379.679688 426.125 380.09375 426.871094 380.921875 C 427.625 381.75 428.003906 382.84375 428.003906 384.199219 C 428.003906 385.554688 427.625 386.644531 426.871094 387.472656 C 426.113281 388.289062 425.183594 388.699219 424.082031 388.699219 C 422.976562 388.699219 422.160156 388.285156 421.632812 387.457031 L 421.632812 392.730469 L 420.210938 392.730469 L 420.210938 379.894531 L 421.378906 379.894531 Z M 424.007812 387.4375 C 424.679688 387.4375 425.269531 387.148438 425.773438 386.574219 C 426.289062 385.996094 426.546875 385.210938 426.546875 384.214844 C 426.546875 383.207031 426.300781 382.410156 425.808594 381.820312 C 425.328125 381.234375 424.742188 380.941406 424.042969 380.941406 C 423.347656 380.941406 422.777344 381.160156 422.335938 381.605469 C 421.890625 382.039062 421.65625 382.625 421.632812 383.371094 L 421.632812 385.007812 C 421.632812 385.765625 421.859375 386.359375 422.316406 386.789062 C 422.773438 387.222656 423.335938 387.4375 424.007812 387.4375 Z M 429.171875 391.003906 C 429.757812 391.457031 430.375 391.6875 431.023438 391.6875 C 431.503906 391.6875 431.917969 391.445312 432.265625 390.964844 C 432.519531 390.617188 432.746094 390.089844 432.949219 389.382812 L 433.203125 388.5 L 429.675781 379.894531 L 431.257812 379.894531 L 433.867188 386.753906 L 435.902344 379.894531 L 437.34375 379.894531 L 434.121094 390.210938 C 433.84375 391.085938 433.476562 391.757812 433.023438 392.226562 C 432.578125 392.695312 432.007812 392.929688 431.3125 392.929688 C 430.628906 392.929688 429.914062 392.71875 429.171875 392.296875 Z M 443.128906 381.101562 C 441.769531 381.101562 441.070312 382.171875 441.019531 384.304688 L 441.019531 388.5 L 439.597656 388.5 L 439.597656 379.878906 L 441.019531 379.878906 L 441.019531 381.535156 C 441.453125 380.335938 442.214844 379.734375 443.308594 379.734375 C 443.65625 379.734375 443.984375 379.789062 444.296875 379.894531 L 444.226562 381.28125 C 443.863281 381.160156 443.5 381.101562 443.128906 381.101562 Z M 446.5625 379.878906 L 447.984375 379.878906 L 447.984375 388.5 L 446.5625 388.5 Z M 447.265625 377.863281 C 446.976562 377.863281 446.75 377.785156 446.582031 377.628906 C 446.425781 377.460938 446.347656 377.242188 446.347656 376.980469 C 446.347656 376.703125 446.425781 376.488281 446.582031 376.332031 C 446.75 376.164062 446.976562 376.078125 447.265625 376.078125 C 447.550781 376.078125 447.78125 376.164062 447.949219 376.332031 C 448.128906 376.488281 448.21875 376.703125 448.21875 376.980469 C 448.21875 377.242188 448.128906 377.460938 447.949219 377.628906 C 447.78125 377.785156 447.550781 377.863281 447.265625 377.863281 Z M 452.210938 388.230469 C 451.492188 387.882812 451.132812 387.347656 451.132812 386.628906 C 451.132812 386.257812 451.269531 385.933594 451.546875 385.65625 C 451.832031 385.367188 452.1875 385.175781 452.605469 385.078125 C 451.960938 384.503906 451.636719 383.746094 451.636719 382.8125 C 451.636719 381.875 451.964844 381.121094 452.625 380.542969 C 453.296875 379.96875 454.089844 379.679688 455 379.679688 C 455.914062 379.679688 456.6875 379.894531 457.324219 380.328125 C 457.40625 379.691406 457.660156 379.183594 458.078125 378.796875 C 458.511719 378.414062 459.074219 378.222656 459.769531 378.222656 L 459.644531 379.625 C 458.589844 379.625 458.035156 380.070312 457.988281 380.957031 C 458.410156 381.472656 458.617188 382.09375 458.617188 382.8125 C 458.617188 383.734375 458.28125 384.496094 457.609375 385.097656 C 456.949219 385.6875 456.121094 385.980469 455.128906 385.980469 C 454.441406 385.980469 453.835938 385.84375 453.308594 385.566406 C 453.070312 385.613281 452.851562 385.726562 452.660156 385.90625 C 452.46875 386.074219 452.371094 386.308594 452.371094 386.609375 C 452.371094 387.246094 452.902344 387.5625 453.957031 387.5625 L 457.304688 387.5625 C 458.109375 387.5625 458.746094 387.738281 459.214844 388.085938 C 459.679688 388.421875 459.914062 388.894531 459.914062 389.507812 C 459.914062 390.421875 459.453125 391.21875 458.527344 391.902344 C 457.617188 392.585938 456.460938 392.929688 455.054688 392.929688 C 453.652344 392.929688 452.546875 392.664062 451.742188 392.136719 C 450.9375 391.621094 450.535156 390.964844 450.535156 390.175781 C 450.535156 389.65625 450.6875 389.238281 450.988281 388.914062 C 451.300781 388.589844 451.707031 388.363281 452.210938 388.230469 Z M 451.941406 390.121094 C 451.941406 390.574219 452.1875 390.964844 452.679688 391.289062 C 453.183594 391.625 453.9375 391.792969 454.945312 391.792969 C 455.96875 391.792969 456.8125 391.570312 457.484375 391.128906 C 458.167969 390.695312 458.511719 390.1875 458.511719 389.597656 C 458.511719 389.320312 458.410156 389.082031 458.203125 388.878906 C 458.011719 388.6875 457.714844 388.589844 457.304688 388.589844 L 453.832031 388.589844 C 453.21875 388.613281 452.75 388.757812 452.425781 389.023438 C 452.101562 389.296875 451.941406 389.664062 451.941406 390.121094 Z M 457.234375 382.8125 C 457.234375 382.1875 457.046875 381.683594 456.675781 381.300781 C 456.304688 380.902344 455.785156 380.707031 455.128906 380.707031 C 454.480469 380.707031 453.96875 380.902344 453.597656 381.300781 C 453.226562 381.683594 453.039062 382.1875 453.039062 382.8125 C 453.039062 383.4375 453.226562 383.953125 453.597656 384.359375 C 453.980469 384.757812 454.496094 384.953125 455.144531 384.953125 C 455.792969 384.953125 456.304688 384.75 456.675781 384.34375 C 457.046875 383.933594 457.234375 383.425781 457.234375 382.8125 Z M 463.449219 381.480469 C 464.027344 380.28125 464.980469 379.679688 466.3125 379.679688 C 467.332031 379.679688 468.125 380.015625 468.6875 380.6875 C 469.265625 381.359375 469.554688 382.277344 469.554688 383.441406 L 469.554688 388.5 L 468.148438 388.5 L 468.148438 383.441406 C 468.148438 382.613281 467.949219 381.988281 467.554688 381.570312 C 467.171875 381.148438 466.613281 380.941406 465.882812 380.941406 C 465.148438 380.941406 464.5625 381.253906 464.117188 381.875 C 463.671875 382.488281 463.449219 383.339844 463.449219 384.433594 L 463.449219 388.5 L 462.027344 388.5 L 462.027344 376.242188 L 463.449219 376.242188 Z M 477.390625 388.246094 C 476.359375 388.726562 475.417969 388.828125 474.566406 388.554688 C 473.953125 388.363281 473.523438 387.960938 473.269531 387.347656 C 473.136719 387.046875 473.070312 386.6875 473.070312 386.269531 L 473.070312 380.976562 L 471.6875 380.976562 L 471.6875 379.894531 L 473.070312 379.894531 L 473.070312 377.503906 L 474.476562 377.503906 L 474.476562 379.894531 L 477.175781 379.894531 L 477.175781 380.976562 L 474.476562 380.976562 L 474.476562 386.25 C 474.476562 387.125 474.882812 387.5625 475.699219 387.5625 C 476.144531 387.5625 476.640625 387.457031 477.195312 387.238281 Z M 487.261719 377.179688 C 488.964844 377.179688 490.328125 377.695312 491.347656 378.726562 C 492.378906 379.746094 492.894531 381.121094 492.894531 382.847656 C 492.894531 384.5625 492.378906 385.9375 491.347656 386.96875 C 490.328125 387.988281 488.964844 388.5 487.261719 388.5 L 483.929688 388.5 L 483.929688 377.179688 Z M 485.351562 387.257812 L 487.261719 387.257812 C 488.519531 387.257812 489.523438 386.84375 490.265625 386.015625 C 491.011719 385.175781 491.382812 384.113281 491.382812 382.828125 C 491.382812 381.546875 491.003906 380.496094 490.25 379.679688 C 489.503906 378.851562 488.507812 378.4375 487.261719 378.4375 L 485.351562 378.4375 Z M 498.820312 387.546875 C 500.003906 387.546875 500.683594 387.023438 500.855469 385.980469 L 502.308594 385.980469 C 502.179688 386.84375 501.796875 387.515625 501.160156 387.996094 C 500.535156 388.464844 499.753906 388.699219 498.820312 388.699219 C 497.667969 388.699219 496.730469 388.289062 496.011719 387.472656 C 495.292969 386.644531 494.929688 385.546875 494.929688 384.179688 C 494.929688 382.8125 495.292969 381.71875 496.011719 380.902344 C 496.742188 380.089844 497.710938 379.679688 498.910156 379.679688 C 500.121094 379.679688 501.019531 380.148438 501.609375 381.085938 C 502.210938 382.019531 502.421875 383.160156 502.238281 384.503906 L 496.351562 384.503906 C 496.351562 385.390625 496.570312 386.125 497 386.699219 C 497.433594 387.265625 498.039062 387.546875 498.820312 387.546875 Z M 499.863281 381.03125 C 499.585938 380.886719 499.25 380.8125 498.855469 380.8125 C 498.125 380.8125 497.542969 381.066406 497.109375 381.570312 C 496.691406 382.0625 496.445312 382.679688 496.371094 383.425781 L 500.960938 383.425781 C 500.960938 382.222656 500.59375 381.425781 499.863281 381.03125 Z M 509.289062 377.449219 C 508.894531 377.292969 508.578125 377.214844 508.355469 377.214844 C 507.933594 377.214844 507.605469 377.316406 507.363281 377.519531 C 507.125 377.722656 507.003906 378.085938 507.003906 378.601562 L 507.003906 379.894531 L 508.785156 379.894531 L 508.785156 380.867188 L 507.003906 380.867188 L 507.003906 388.5 L 505.601562 388.5 L 505.601562 380.867188 L 504.175781 380.867188 L 504.175781 379.894531 L 505.601562 379.894531 L 505.601562 378.582031 C 505.601562 377.730469 505.835938 377.105469 506.300781 376.710938 C 506.769531 376.300781 507.308594 376.097656 507.921875 376.097656 C 508.535156 376.097656 509.074219 376.175781 509.539062 376.332031 Z M 516.996094 377.179688 L 516.996094 382.164062 L 522.554688 382.164062 L 522.554688 377.179688 L 523.980469 377.179688 L 523.980469 388.5 L 522.554688 388.5 L 522.554688 383.386719 L 516.996094 383.386719 L 516.996094 388.5 L 515.570312 388.5 L 515.570312 377.179688 Z M 532.941406 382.921875 C 532.941406 382.140625 532.78125 381.582031 532.453125 381.246094 C 532.128906 380.910156 531.65625 380.742188 531.035156 380.742188 C 530.421875 380.742188 529.925781 380.867188 529.539062 381.121094 C 529.164062 381.359375 528.980469 381.742188 528.980469 382.273438 L 527.414062 382.273438 C 527.414062 380.953125 528.125 380.136719 529.539062 379.824219 C 529.96875 379.726562 530.441406 379.679688 530.945312 379.679688 C 532.011719 379.679688 532.84375 379.949219 533.445312 380.488281 C 534.046875 381.03125 534.34375 381.851562 534.34375 382.957031 L 534.34375 388.5 L 533.121094 388.5 L 532.976562 387.058594 C 532.449219 388.152344 531.496094 388.699219 530.113281 388.699219 C 529.191406 388.699219 528.445312 388.441406 527.886719 387.925781 C 527.328125 387.40625 527.054688 386.765625 527.054688 385.996094 C 527.054688 385.230469 527.359375 384.628906 527.976562 384.199219 C 528.59375 383.765625 529.371094 383.550781 530.296875 383.550781 C 531.21875 383.550781 532.101562 383.707031 532.941406 384.019531 Z M 532.941406 384.917969 C 532.089844 384.679688 531.34375 384.558594 530.710938 384.558594 C 530.074219 384.558594 529.554688 384.671875 529.160156 384.898438 C 528.765625 385.128906 528.566406 385.488281 528.566406 385.980469 C 528.566406 387.058594 529.179688 387.601562 530.40625 387.601562 C 531.101562 387.601562 531.695312 387.355469 532.183594 386.863281 C 532.691406 386.359375 532.941406 385.710938 532.941406 384.917969 Z M 540.546875 379.679688 C 541.566406 379.679688 542.375 379.945312 542.976562 380.472656 C 543.574219 380.988281 543.964844 381.636719 544.144531 382.414062 L 542.703125 382.542969 C 542.550781 382.039062 542.300781 381.648438 541.949219 381.371094 C 541.605469 381.085938 541.21875 380.941406 540.800781 380.941406 C 540.03125 380.941406 539.40625 381.226562 538.925781 381.804688 C 538.460938 382.378906 538.226562 383.164062 538.226562 384.160156 C 538.226562 385.144531 538.453125 385.9375 538.910156 386.539062 C 539.375 387.136719 539.953125 387.4375 540.636719 387.4375 C 541.335938 387.4375 541.851562 387.28125 542.183594 386.96875 C 542.535156 386.644531 542.703125 386.191406 542.703125 385.601562 L 544.164062 385.601562 C 544.164062 386.527344 543.839844 387.277344 543.195312 387.851562 C 542.554688 388.414062 541.726562 388.699219 540.691406 388.699219 C 539.601562 388.699219 538.671875 388.285156 537.898438 387.457031 C 537.144531 386.628906 536.765625 385.53125 536.765625 384.160156 C 536.765625 382.78125 537.144531 381.691406 537.898438 380.886719 C 538.65625 380.082031 539.539062 379.679688 540.546875 379.679688 Z M 549.523438 383.945312 L 548.371094 384.882812 L 548.371094 388.5 L 546.949219 388.5 L 546.949219 376.242188 L 548.371094 376.242188 L 548.371094 383.371094 L 552.53125 379.894531 L 554.511719 379.894531 L 550.550781 383.117188 L 554.703125 388.5 L 552.960938 388.5 Z M 556.660156 382.003906 C 556.660156 381.292969 556.960938 380.730469 557.558594 380.308594 C 558.171875 379.890625 558.996094 379.679688 560.023438 379.679688 C 561.054688 379.679688 561.859375 379.894531 562.433594 380.328125 C 563.023438 380.761719 563.328125 381.304688 563.355469 381.964844 L 561.96875 381.964844 C 561.859375 381.1875 561.199219 380.796875 559.988281 380.796875 C 559.398438 380.796875 558.945312 380.929688 558.621094 381.191406 C 558.308594 381.457031 558.15625 381.742188 558.15625 382.054688 C 558.15625 382.355469 558.273438 382.613281 558.515625 382.828125 C 558.753906 383.035156 559.136719 383.214844 559.664062 383.371094 L 561.394531 383.945312 C 562.125 384.175781 562.683594 384.46875 563.066406 384.828125 C 563.464844 385.175781 563.660156 385.660156 563.660156 386.285156 C 563.660156 386.898438 563.34375 387.457031 562.703125 387.960938 C 562.070312 388.453125 561.183594 388.699219 560.046875 388.699219 C 558.90625 388.699219 558.015625 388.445312 557.378906 387.941406 C 556.746094 387.425781 556.40625 386.765625 556.371094 385.960938 L 557.738281 385.960938 C 557.765625 386.503906 557.980469 386.910156 558.386719 387.1875 C 558.804688 387.449219 559.328125 387.582031 559.953125 387.582031 C 560.574219 387.582031 561.09375 387.449219 561.5 387.1875 C 561.910156 386.921875 562.113281 386.609375 562.113281 386.25 C 562.113281 385.878906 561.996094 385.597656 561.753906 385.402344 C 561.515625 385.210938 561.125 385.042969 560.585938 384.898438 L 558.910156 384.34375 C 557.410156 383.898438 556.660156 383.117188 556.660156 382.003906 Z M 570.875 377.179688 L 572.296875 377.179688 L 572.296875 388.5 L 570.875 388.5 Z M 577.285156 381.550781 C 577.851562 380.304688 578.816406 379.679688 580.183594 379.679688 C 581.203125 379.679688 581.996094 380.015625 582.558594 380.6875 C 583.136719 381.359375 583.425781 382.277344 583.425781 383.441406 L 583.425781 388.5 L 582.019531 388.5 L 582.019531 383.441406 C 582.019531 382.613281 581.820312 381.988281 581.425781 381.570312 C 581.039062 381.148438 580.488281 380.941406 579.769531 380.941406 C 579.050781 380.941406 578.46875 381.234375 578.023438 381.820312 C 577.578125 382.410156 577.34375 383.226562 577.320312 384.269531 L 577.320312 388.5 L 575.898438 388.5 L 575.898438 379.894531 L 577.125 379.894531 Z M 589.625 379.679688 C 590.644531 379.679688 591.453125 379.945312 592.054688 380.472656 C 592.65625 380.988281 593.046875 381.636719 593.226562 382.414062 L 591.785156 382.542969 C 591.628906 382.039062 591.375 381.648438 591.03125 381.371094 C 590.679688 381.085938 590.296875 380.941406 589.875 380.941406 C 589.109375 380.941406 588.484375 381.226562 588.003906 381.804688 C 587.535156 382.378906 587.304688 383.164062 587.304688 384.160156 C 587.304688 385.144531 587.53125 385.9375 587.984375 386.539062 C 588.453125 387.136719 589.03125 387.4375 589.714844 387.4375 C 590.410156 387.4375 590.925781 387.28125 591.265625 386.96875 C 591.609375 386.644531 591.785156 386.191406 591.785156 385.601562 L 593.246094 385.601562 C 593.246094 386.527344 592.921875 387.277344 592.269531 387.851562 C 591.636719 388.414062 590.800781 388.699219 589.769531 388.699219 C 588.675781 388.699219 587.746094 388.285156 586.980469 387.457031 C 586.226562 386.628906 585.84375 385.53125 585.84375 384.160156 C 585.84375 382.78125 586.226562 381.691406 586.980469 380.886719 C 587.734375 380.082031 588.613281 379.679688 589.625 379.679688 Z M 595.796875 388.660156 C 595.496094 388.660156 595.238281 388.566406 595.035156 388.375 C 594.84375 388.171875 594.75 387.929688 594.75 387.652344 C 594.75 387.367188 594.84375 387.125 595.035156 386.933594 C 595.238281 386.730469 595.496094 386.628906 595.796875 386.628906 C 596.105469 386.628906 596.363281 386.730469 596.566406 386.933594 C 596.769531 387.125 596.875 387.367188 596.875 387.652344 C 596.875 387.929688 596.769531 388.171875 596.566406 388.375 C 596.363281 388.566406 596.105469 388.660156 595.796875 388.660156 Z M 604.289062 387.1875 L 610.859375 387.1875 L 610.859375 388.5 L 602.863281 388.5 L 602.863281 386.824219 C 602.863281 385.492188 603.371094 384.515625 604.378906 383.890625 C 604.703125 383.6875 605.066406 383.507812 605.460938 383.351562 L 607.691406 382.453125 C 608.84375 381.996094 609.421875 381.246094 609.421875 380.203125 C 609.421875 379.625 609.21875 379.15625 608.824219 378.796875 C 608.429688 378.425781 607.871094 378.238281 607.148438 378.238281 C 606.445312 378.238281 605.859375 378.390625 605.40625 378.691406 C 604.960938 378.988281 604.703125 379.441406 604.628906 380.039062 L 603.066406 380.039062 C 603.125 379.054688 603.519531 378.300781 604.253906 377.773438 C 604.984375 377.242188 605.921875 376.980469 607.058594 376.980469 C 608.214844 376.980469 609.148438 377.292969 609.871094 377.914062 C 610.589844 378.539062 610.949219 379.3125 610.949219 380.238281 C 610.949219 381.148438 610.710938 381.875 610.230469 382.414062 C 609.761719 382.957031 609.113281 383.386719 608.285156 383.710938 L 606 384.628906 C 605.425781 384.871094 604.988281 385.144531 604.703125 385.457031 C 604.425781 385.757812 604.289062 386.152344 604.289062 386.644531 Z M 617.519531 376.980469 C 618.890625 376.980469 619.96875 377.484375 620.761719 378.492188 C 621.550781 379.5 621.949219 380.953125 621.949219 382.847656 C 621.949219 384.730469 621.550781 386.179688 620.761719 387.1875 C 619.96875 388.195312 618.890625 388.699219 617.519531 388.699219 C 616.148438 388.699219 615.066406 388.199219 614.261719 387.203125 C 613.46875 386.207031 613.074219 384.757812 613.074219 382.847656 C 613.074219 380.929688 613.46875 379.46875 614.261719 378.472656 C 615.066406 377.476562 616.148438 376.980469 617.519531 376.980469 Z M 620.46875 382.847656 C 620.46875 381.371094 620.21875 380.242188 619.714844 379.464844 C 619.210938 378.671875 618.476562 378.277344 617.5 378.277344 C 616.539062 378.277344 615.808594 378.671875 615.304688 379.464844 C 614.800781 380.242188 614.550781 381.371094 614.550781 382.847656 C 614.550781 384.3125 614.800781 385.441406 615.304688 386.230469 C 615.808594 387.011719 616.539062 387.402344 617.5 387.402344 C 618.476562 387.402344 619.210938 387.011719 619.714844 386.230469 C 620.21875 385.441406 620.46875 384.3125 620.46875 382.847656 Z M 625.421875 387.1875 L 631.988281 387.1875 L 631.988281 388.5 L 623.996094 388.5 L 623.996094 386.824219 C 623.996094 385.492188 624.5 384.515625 625.511719 383.890625 C 625.828125 383.6875 626.191406 383.507812 626.589844 383.351562 L 628.820312 382.453125 C 629.96875 381.996094 630.550781 381.246094 630.550781 380.203125 C 630.550781 379.625 630.351562 379.15625 629.953125 378.796875 C 629.558594 378.425781 629 378.238281 628.28125 378.238281 C 627.570312 378.238281 626.988281 378.390625 626.535156 378.691406 C 626.089844 378.988281 625.828125 379.441406 625.761719 380.039062 L 624.195312 380.039062 C 624.253906 379.054688 624.648438 378.300781 625.378906 377.773438 C 626.113281 377.242188 627.050781 376.980469 628.191406 376.980469 C 629.339844 376.980469 630.28125 377.292969 631 377.914062 C 631.71875 378.539062 632.078125 379.3125 632.078125 380.238281 C 632.078125 381.148438 631.839844 381.875 631.359375 382.414062 C 630.890625 382.957031 630.238281 383.386719 629.414062 383.710938 L 627.128906 384.628906 C 626.550781 384.871094 626.121094 385.144531 625.828125 385.457031 C 625.554688 385.757812 625.421875 386.152344 625.421875 386.644531 Z M 638.648438 376.980469 C 640.015625 376.980469 641.09375 377.484375 641.890625 378.492188 C 642.679688 379.5 643.074219 380.953125 643.074219 382.847656 C 643.074219 384.730469 642.679688 386.179688 641.890625 387.1875 C 641.09375 388.195312 640.015625 388.699219 638.648438 388.699219 C 637.28125 388.699219 636.195312 388.199219 635.390625 387.203125 C 634.601562 386.207031 634.203125 384.757812 634.203125 382.847656 C 634.203125 380.929688 634.601562 379.46875 635.390625 378.472656 C 636.195312 377.476562 637.28125 376.980469 638.648438 376.980469 Z M 641.601562 382.847656 C 641.601562 381.371094 641.351562 380.242188 640.84375 379.464844 C 640.339844 378.671875 639.605469 378.277344 638.628906 378.277344 C 637.671875 378.277344 636.941406 378.671875 636.433594 379.464844 C 635.929688 380.242188 635.679688 381.371094 635.679688 382.847656 C 635.679688 384.3125 635.929688 385.441406 636.433594 386.230469 C 636.941406 387.011719 637.671875 387.402344 638.628906 387.402344 C 639.605469 387.402344 640.339844 387.011719 640.84375 386.230469 C 641.351562 385.441406 641.601562 384.3125 641.601562 382.847656 Z M 641.601562 382.847656 "/>
</g>
</svg>
