<?xml version="1.0" encoding="UTF-8"?>
<svg xmlns="http://www.w3.org/2000/svg" xmlns:xlink="http://www.w3.org/1999/xlink" width="1239pt" height="768pt" viewBox="0 0 1239 768" version="1.1">
<g id="surface1">
<path style=" stroke:none;fill-rule:nonzero;fill:rgb(100%,88.627451%,88.627451%);fill-opacity:1;" d="M 376.277344 473.941406 C 376.277344 504.230469 373.441406 533.851562 368.015625 562.558594 C 326.558594 781.960938 134.027344 947.886719 -97.222656 947.886719 C -358.730469 947.886719 -570.722656 735.695312 -570.722656 473.941406 C -570.722656 310.65625 -488.226562 166.65625 -362.675781 81.425781 C -286.964844 30.027344 -195.597656 0 -97.222656 0 C 164.285156 0 376.277344 212.191406 376.277344 473.941406 Z M 376.277344 473.941406 "/>
<path style=" stroke:none;fill-rule:nonzero;fill:rgb(85.882353%,85.490196%,100%);fill-opacity:1;" d="M 25.21875 537.707031 L 973.234375 108.859375 L 1238.34375 695.183594 L 405.035156 589.042969 Z M 25.21875 537.707031 "/>
<path style=" stroke:none;fill-rule:nonzero;fill:rgb(100%,84.705882%,51.372549%);fill-opacity:1;" d="M 702.449219 81.722656 L 517.632812 646.730469 L 1132.300781 463.734375 Z M 702.449219 81.722656 "/>
</g>
</svg>
