<?xml version="1.0" encoding="UTF-8"?>
<svg width="343pt" height="336pt" version="1.1" viewBox="0 0 343 336" xmlns="http://www.w3.org/2000/svg">
<defs>
<clipPath id="q">
<path d="m169 193h4v113.46h-4z"/>
</clipPath>
<clipPath id="h">
<path d="m119 193h4v113.46h-4z"/>
</clipPath>
<clipPath id="g">
<path d="m56 234h131v72.457h-131z"/>
</clipPath>
<clipPath id="f">
<path d="m64 253h96v53.457h-96z"/>
</clipPath>
<clipPath id="e">
<path d="m96 232h129v74.457h-129z"/>
</clipPath>
<clipPath id="d">
<path d="m121 253h96v53.457h-96z"/>
</clipPath>
<clipPath id="c">
<path d="m51.223 64h89.777v100h-89.777z"/>
</clipPath>
<clipPath id="b">
<path d="m51.223 68h19.777v26h-19.777z"/>
</clipPath>
<clipPath id="a">
<path d="m51.223 49h39.777v62h-39.777z"/>
</clipPath>
<clipPath id="p">
<path d="m51.223 53h38.777v61h-38.777z"/>
</clipPath>
<clipPath id="o">
<path d="m51.223 57h38.777v61h-38.777z"/>
</clipPath>
<clipPath id="n">
<path d="m51.223 60h38.777v61h-38.777z"/>
</clipPath>
<clipPath id="m">
<path d="m121 10.016h63v44.984h-63z"/>
</clipPath>
<clipPath id="l">
<path d="m120 10.016h50v37.984h-50z"/>
</clipPath>
<clipPath id="k">
<path d="m175 53h129.22v72h-129.22z"/>
</clipPath>
<clipPath id="j">
<path d="m130 10.016h174.22v154.98h-174.22z"/>
</clipPath>
<clipPath id="i">
<path d="m91 102h213.22v93h-213.22z"/>
</clipPath>
</defs>
<path d="m189.69 158.98 112.45 118.23-193.61-1.4453-112.45-118.23z" fill="#dbd9ff"/>
<path d="m296.72 67.102c0-37.059-30.109-67.102-67.25-67.102s-67.25 30.043-67.25 67.102c0 37.055 30.109 67.098 67.25 67.098s67.25-30.043 67.25-67.098z" fill="#eee518" fill-opacity=".3098"/>
<g clip-path="url(#q)">
<path transform="scale(.5 .50074)" d="m341.45 389.57v220.77" fill="none" stroke="#ffb000" stroke-miterlimit="10" stroke-width="6"/>
</g>
<g clip-path="url(#h)">
<path transform="scale(.5 .50074)" d="m242.1 389.57v220.77" fill="none" stroke="#ffb000" stroke-miterlimit="10" stroke-width="6"/>
</g>
<path transform="scale(.5 .50074)" d="m342.41 574.85h-99.086" fill="none" stroke="#ffb000" stroke-miterlimit="10" stroke-width="6"/>
<path transform="scale(.5 .50074)" d="m226.32 359.98h131.88c4.4297 0 8.0156 3.526 8.0156 7.8789v13.839c0 4.3451-3.5859 7.8711-8.0156 7.8711h-131.88c-4.4297 0-8.0234-3.526-8.0234-7.8711v-13.839c0-4.3529 3.5938-7.8789 8.0234-7.8789z" fill="#fff" stroke="#62a336" stroke-miterlimit="10" stroke-width="6"/>
<path d="m122.27 73.527c-4.0898-1.1289-9.7422-13.609-3.5469-20.371 6.1914-6.7578 19.312-6.9609 30.453-5.3203 10.297 1.5156 23.82 7.3906 18.668 20.059-7.332 18.012-45.574 5.6328-45.574 5.6328z" fill="#ffb819"/>
<path d="m128.43 65.027c-3.8633-0.80469-10.5-7.125-4.668-11.934 5.832-4.8086 14.816-5.2773 24.387-3.668 9.5664 1.6055 19.48 4.9297 14.93 14.051-4.5508 9.1172-34.648 1.5508-34.648 1.5508z" fill="#f49c00"/>
<path d="m105.63 304.53c2.4961 1.5117 17.781 1.4219 20.664 0 2.8867-1.4258 2.2109-6.2422 2.6914-9.4531 0.48047-3.2148 7.3047-9.2617 7.6875-11.344s-7.0156-6.6133-8.3008-8.4609c1.0586 3.0664-9.5273 3.7383-10.379 1.75 0.41406 7.2812-5.0273 18.852-9.4883 19.895-2.8086 0.66016-5.375 6.1016-2.875 7.6133z" fill="#dbd9ff"/>
<path d="m115.71 269.06 2.2852 7.9609c0.84766 1.9883 11.434 1.3164 10.383-1.75-1.0547-3.0703-0.65625-8.3984-0.65625-8.3984z" fill="#c26f0a"/>
<g clip-path="url(#g)">
<path transform="scale(.5 .50074)" d="m273.34 566.64c-0.77344 4.1501-14.422 16.234-15.391 22.654-0.96094 6.4201 0.39062 16.039-5.375 18.87s-36.336 3.0189-41.336 0" fill="none" stroke="#62a336" stroke-linecap="round" stroke-miterlimit="10" stroke-width="7"/>
</g>
<g clip-path="url(#f)">
<path transform="scale(.5 .50074)" d="m234.8 592.93s-10.141-4.4465-20.234-0.95171" fill="none" stroke="#fff" stroke-linecap="round" stroke-miterlimit="10" stroke-width="6"/>
</g>
<path d="m175.27 304.53c-2.5 1.5117-16.094 1.4219-18.977 0-2.8867-1.4258-4.625-6.2422-5.1055-9.4531-0.48047-3.2148-5.1328-10.449-5.5156-12.527-0.38672-2.0859 7.0156-6.6172 8.3008-8.4648-1.0586 3.0664 9.2852 4.9258 10.141 2.9375-0.41797 7.2812 3.8164 18.852 8.2773 19.895 2.8086 0.66016 5.375 6.1016 2.8789 7.6133z" fill="#dbd9ff"/>
<path d="m169.29 268.59-5.1836 8.4336c-0.84766 1.9883-11.191 0.12891-10.141-2.9375 1.0547-3.0664 1.3789-7.9219 1.3789-7.9219z" fill="#c26f0a"/>
<g clip-path="url(#e)">
<path transform="scale(.5 .50074)" d="m291.34 564.27c0.76562 4.1501 10.07 18.605 11.031 25.025 0.96094 6.4201 4.4453 16.039 10.211 18.87 5.7734 2.8317 32.953 3.0189 37.953 0" fill="none" stroke="#62a336" stroke-linecap="round" stroke-miterlimit="10" stroke-width="7"/>
</g>
<g clip-path="url(#d)">
<path transform="scale(.5 .50074)" d="m326.98 592.93s10.117-4.4465 20.234-0.95171" fill="none" stroke="#fff" stroke-linecap="round" stroke-miterlimit="10" stroke-width="6"/>
</g>
<path d="m170.68 148.26s50.281 24.219 50.281 39.113c0 26.57-44.973 82.613-52.695 81.879-7.7227-0.73438-15.332-2.3438-15.035-5.5586 0.29688-3.2148 16.473-53.613 29.039-68.535 0 0-4.5859-7.1016-33.25-6.7891-13.816 0.14844-25.859 1.0742-26.156 1.5117s15.02 29.832 7.2031 75.281c-0.68359 3.9609-17.527 5.6211-19.156 3.4297-1.6328-2.1914-27.777-79.367-25.254-85.508 2.5234-6.1406 28.73-28.137 41.512-34.828 9.207-4.8164 43.512 0.003906 43.512 0.003906z" fill="#3e4c78"/>
<path d="m185.04 71.473c6.375 3.4414 15.902 34.312 15.902 34.312s22.961-27.715 24.023-27.977c1.0625-0.25781 7.2305 7.8359 7.2305 7.8359s-11.984 52.629-30.684 53.797c-7.8516 0.49219-14.488-3.9844-19.938-10.527-2.4141 7.918-4.668 14.445-4.668 14.445-0.96484 3.3242 17.055 12.477 12.941 14.992 0 0-14.027-4.4883-38.785 1.7891-29.598 7.5117-43.906 1.8125-41.109-0.37109 2.7969-2.1836 7.1914-9.2852 8.7109-14.035l-2.7305-25.562s-9.5586 23.848-24 23.848c-17.23 0-32.98-51.797-32.98-51.797 6.125-0.17188 11.199-4.4727 11.199-4.4727 6.4766 4.4727 19.953 20.141 19.953 20.141s8.3984-24.969 12.422-30.648c4.0273-5.6797 17.145-10.152 25.902-12.215l34.648-1.5508c2.3281-0.4375 16.535 4.3516 21.961 7.9961z" fill="#ffb000"/>
<g clip-path="url(#c)">
<path transform="scale(.5 .50074)" d="m180.2 213.37c8.7656 9.8993 16.68 27.498 16.68 27.498" fill="none" stroke="#f49c00" stroke-miterlimit="10" stroke-width="6"/>
</g>
<path transform="scale(.5 .50074)" d="m235.25 137.37c33.648-2.7927 67.43 17.989 67.43 17.989s29.695-6.5371 35.633-25.946" fill="none" stroke="#f49c00" stroke-miterlimit="10" stroke-width="6"/>
<path transform="scale(.5 .50074)" d="m352.84 286.29s18.57-52.375 21.164-74.467" fill="none" stroke="#f49c00" stroke-linecap="round" stroke-miterlimit="10" stroke-width="6"/>
<g clip-path="url(#b)">
<path d="m59.434 73.324c0.22656 1.4102 1.7891 3.6016 0.24219 3.5859-0.79688 0-6.5586-0.92188-7.2617 1.1602-0.29687 0.99219-0.24609 2.0508 0.15234 3.0078-1.2617 1.8555-0.29688 3.3711-0.29688 3.3711-0.76562 1.1523-0.96484 2.6445-0.43359 3.3047 0 0-1.3359 3.0273-0.0625 3.7266 3.9492 2.1875 10.25 2.6406 13.301 1.8633 2.1406-0.54297 4.7109-1.8438 5.3672-6.3281 0.26953-1.832-1.5898-6.6445-3.0078-8.6328-0.58203-0.81641-2.7031-4.0703-3.418-4.9648-1.0234-1.3086-1.7188-2.832-2.0352-4.4492 0 0-3.1758 0.41016-2.5469 4.3555z" fill="#c26f0a"/>
</g>
<g clip-path="url(#a)">
<path transform="scale(.5 .50074)" d="m108.54 155.35c-0.28125 1.8956 11.484 2.2935 13.523 2.7303 2.8906 0.61627 2.5156 6.6932-1.2422 6.1003-5.1094-0.22622-10.188-0.95171-15.156-2.1452" fill="none" stroke="#b55a18" stroke-linecap="round" stroke-miterlimit="10" stroke-width="4"/>
</g>
<g clip-path="url(#p)">
<path transform="scale(.5 .50074)" d="m105.3 168.71c12.445 2.4651 15.773 2.231 15.773 2.231 1.8125 0.35104 4.1484-5.9443-0.25781-6.7556" fill="none" stroke="#b55a18" stroke-linecap="round" stroke-miterlimit="10" stroke-width="4"/>
</g>
<g clip-path="url(#o)">
<path transform="scale(.5 .50074)" d="m104.99 175.03c11.719 2.5275 15.773 2.2389 15.773 2.2389 1.7344 0.20282 3.9062-5.7882 0.35938-6.2017" fill="none" stroke="#b55a18" stroke-linecap="round" stroke-miterlimit="10" stroke-width="4"/>
</g>
<g clip-path="url(#n)">
<path transform="scale(.5 .50074)" d="m117.48 177.17s4.1875-0.38224 4.125 2.1764c-0.11719 4.5557-2.3594 5.0394-12.961 3.1282" fill="none" stroke="#b55a18" stroke-linecap="round" stroke-miterlimit="10" stroke-width="4"/>
</g>
<path d="m233.34 66.316c-0.046875 1.4258-1.3125 3.7656 0.20312 3.5625 0.78906-0.10547 6.3555-1.6914 7.3047 0.27344 0.41797 0.94141 0.49609 1.9961 0.22266 2.9844 1.4727 1.6758 0.71094 3.2852 0.71094 3.2852 0.89062 1.0508 1.2773 2.4961 0.83203 3.2109 0 0 1.6914 2.8203 0.52344 3.668-3.6211 2.625-9.7773 3.8242-12.883 3.4219-2.1719-0.28125-4.8711-1.2578-6.0742-5.5977-0.48047-1.7734 0.74609-6.7305 1.8984-8.8672 0.47266-0.875 2.1602-4.3359 2.7617-5.3047 0.83984-1.4102 1.3359-2.9961 1.4492-4.6289 0 0 3.1836 0.027343 3.0508 3.9922z" fill="#c26f0a"/>
<path d="m240.61 83.504c-5.1055 1.5742-6.2461 1.4648-6.5859-0.77344-0.10547-0.71094 0.51172-1.0352 1.0703-1.1875-0.25781 0.050781-0.51953 0.085937-0.78125 0.10938-0.77734 0.1875-2.0938-2.418-0.92578-3.1367-0.48438-0.23828-0.99609-1.9414-0.99219-3.4531-0.90234-0.60938-0.96875-2.4258 0.082031-2.7891 0.98438-0.33984 6.7578-1.2461 6.5156-2.1602z" fill="#c26f0a"/>
<path transform="scale(.5 .50074)" d="m481.03 146.25c-4.5703 1.7318-9.2891 3.0501-14.109 3.9316-3.625 1.0219-4.75-4.9146-1.9688-5.8663 1.9688-0.67868 11.211-3.6352 13.031-4.3139" fill="none" stroke="#b55a18" stroke-linecap="round" stroke-miterlimit="10" stroke-width="3"/>
<path transform="scale(.5 .50074)" d="m482.21 152.79c-11.961 3.9082-14.695 4.0877-14.695 4.0877-1.7422 0.55386-4.8281-5.367-0.59375-6.6932" fill="none" stroke="#b55a18" stroke-linecap="round" stroke-miterlimit="10" stroke-width="3"/>
<path transform="scale(.5 .50074)" d="m483.87 158.96c-11.227 3.8926-15.266 4.0877-15.266 4.0877-1.6875 0.41345-4.0391-5.8039 0.09375-6.3421" fill="none" stroke="#b55a18" stroke-linecap="round" stroke-miterlimit="10" stroke-width="3"/>
<path transform="scale(.5 .50074)" d="m471.85 162.58s-4.1797 0.12481-3.8047 2.6367c0.67969 4.4699 2.9531 4.6883 13.164 1.5446" fill="none" stroke="#b55a18" stroke-linecap="round" stroke-miterlimit="10" stroke-width="3"/>
<path d="m135.77 42.828s3.6797 16.176-7.3477 22.199c0 0 10.141 1.7188 23.102 12.215 0 0 9.9727-8.2578 11.547-13.77 0 0-10.141-3.4375-9.0977-20.652z" fill="#c26f0a"/>
<path d="m135.77 42.828h18.203c-1.0508 17.207 9.0977 20.652 9.0977 20.652s-20.238 0-25.961-17.742z" fill="#b55a18"/>
<path d="m135.08 42.668s5.4062 10.363 18.324 10.367c11.52 0 13.277-33.254-3.8789-33.711-16.352-0.4375-14.246 18.586-14.246 18.586s-2.9414-1.6836-4.0117 0.070313c-1.0703 1.75 3.8125 4.6875 3.8125 4.6875z" fill="#c26f0a"/>
<g clip-path="url(#m)">
<path transform="scale(.5 .50074)" d="m285.3 41.072s0.375 11.491 16.578 11.319c14.078-0.14822 21.797 7.6683 22.547 13.3" fill="none" stroke="#3e4c78" stroke-linecap="round" stroke-miterlimit="10" stroke-width="3"/>
</g>
<g clip-path="url(#l)">
<path d="m120.43 31.934c0 6.2734 7.6992 11.695 16.223 15.375 0.50391 0.21875 1.3203 0.26953 2.3555 0.1875-1.5586-1.3984-2.8828-3.0273-3.9258-4.8281 0 0-4.8555-2.9766-3.8047-4.6875 1.0508-1.7148 4.0117-0.074219 4.0117-0.074219s-1.4727-13.258 7.5547-17.375c0.070312 0.125 2.4141 4.1914 9.3438 4.4062 6.5898 0.20312 8.3867 2.6719 9.1406 5.2578 0.023437 0.089844 0.050781 0.17578 0.070312 0.26563 0.85156 3.4375 1.0547 6.9961 0.59766 10.504l0.039062-0.015625c0.64062-0.76172 9.3828-11.656 7.1016-17.5-2.4805-6.3516-18.328-15.309-31.016-13.09-7.0859 1.2422-17.691 18.277-17.691 21.574z" fill="#3e4c78"/>
</g>
<path d="m177.89 121.83h97.238c1.332 0 2.6328-0.41406 3.7148-1.1797 1.082-0.76953 1.8945-1.8516 2.3203-3.0938l20.609-60.34c0.22266-0.66406 0.28906-1.3711 0.17969-2.0625-0.10547-0.69141-0.375-1.3477-0.79297-1.918-0.41406-0.56641-0.96094-1.0273-1.5938-1.3477s-1.3359-0.48438-2.0469-0.48438h-97.234c-1.3359 0.003906-2.6367 0.41406-3.7188 1.1836-1.082 0.76562-1.8945 1.8477-2.3164 3.0898l-20.598 60.328c-0.23047 0.66016-0.29297 1.3672-0.19141 2.0625 0.10547 0.69141 0.375 1.3477 0.78906 1.918 0.41406 0.57031 0.96094 1.0352 1.5938 1.3555 0.63281 0.32031 1.3359 0.48828 2.0469 0.48828z" fill="#c7bfff"/>
<g clip-path="url(#k)">
<path d="m180.11 124.18h97.238c1.3359 0 2.6367-0.41406 3.7188-1.1797s1.8945-1.8477 2.3164-3.0938l20.602-60.328c0.22656-0.66406 0.28906-1.3672 0.18359-2.0586-0.10547-0.69141-0.37891-1.3516-0.79297-1.918-0.41406-0.56641-0.96094-1.0312-1.5938-1.3477-0.63281-0.32031-1.332-0.48828-2.043-0.48828h-97.234c-1.3359 0.003907-2.6367 0.41797-3.7188 1.1836s-1.8945 1.8477-2.3203 3.0898l-20.598 60.332c-0.22656 0.66016-0.28906 1.3672-0.18359 2.0586 0.10547 0.6875 0.37891 1.3438 0.79297 1.9141 0.41406 0.56641 0.95703 1.0312 1.5898 1.3477 0.63281 0.32031 1.332 0.48828 2.043 0.48828z" fill="#fff"/>
</g>
<g clip-path="url(#j)">
<path transform="scale(.5 .50074)" d="m355.77 242.91h194.48c2.6641 0 5.2656-0.82689 7.4297-2.3559 2.1719-1.529 3.7891-3.6898 4.6406-6.1783l41.219-120.48c0.45313-1.3261 0.57813-2.7381 0.35938-4.1189-0.21094-1.3808-0.75-2.6913-1.5859-3.8224-0.82812-1.1389-1.9219-2.0594-3.1875-2.6991-1.2656-0.63187-2.6719-0.96731-4.0938-0.96731h-194.47c-2.6719 0.007801-5.2734 0.83469-7.4375 2.3637s-3.7812 3.6898-4.6328 6.1705l-41.219 120.48c-0.45313 1.3261-0.57813 2.7381-0.35938 4.1189 0.21094 1.3808 0.75 2.6913 1.5859 3.8224 0.82812 1.1389 1.9219 2.0594 3.1875 2.6991s2.6641 0.96731 4.0859 0.96731z" fill="none" stroke="#62a336" stroke-miterlimit="10" stroke-width="6"/>
</g>
<path d="m219.95 102.73-7.3984 18.105h15.988s-3.1094-14.164-8.5898-18.105z" fill="#c9c9f9"/>
<path transform="scale(.5 .50074)" d="m418.62 286.64c62.961 0 36.484-66.144 23.961-79.889h48.461c12.516 13.753 46.383 83.524-16.57 83.524h-55.852z" fill="#fff" stroke="#62a336" stroke-miterlimit="10" stroke-width="6"/>
<path d="m236.04 87.738c-1.3555-2.1133-0.26172-5.1875 2.4453-6.8672 2.707-1.6797 6.0039-1.3281 7.3594 0.78516 1.3555 2.1133 0.26172 5.1875-2.4453 6.8672-2.707 1.6797-6.0039 1.3281-7.3594-0.78516z" fill="#c9c9f9"/>
<path transform="scale(.5 .50074)" d="m468.98 172.66c-2.7109-4.2203-0.52344-10.36 4.8906-13.714 5.4141-3.3622 12.008-2.6601 14.719 1.5602 2.7109 4.2203 0.52344 10.367-4.8906 13.722-5.4141 3.3544-12.008 2.6523-14.719-1.568z" fill="none" stroke="#62a336" stroke-miterlimit="10" stroke-width="6"/>
<path d="m281.59 145.35h-144.18c-2.1211 0-3.8398 1.5781-3.8398 3.5234s1.7188 3.5195 3.8398 3.5195h144.18z" fill="#fff"/>
<g clip-path="url(#i)">
<path transform="scale(.5 .50074)" d="m563.18 290.27h-288.35c-4.2422 0-7.6797 3.1516-7.6797 7.0364 0 3.8848 3.4375 7.0286 7.6797 7.0286h288.35" fill="none" stroke="#62a336" stroke-miterlimit="10" stroke-width="6"/>
</g>
</svg>
