<?xml version="1.0" encoding="UTF-8"?>
<svg xmlns="http://www.w3.org/2000/svg" xmlns:xlink="http://www.w3.org/1999/xlink" width="343pt" height="336pt" viewBox="0 0 343 336" version="1.1">
<defs>
<clipPath id="clip1">
  <path d="M 169 193 L 173 193 L 173 306.457031 L 169 306.457031 Z M 169 193 "/>
</clipPath>
<clipPath id="clip2">
  <path d="M 119 193 L 123 193 L 123 306.457031 L 119 306.457031 Z M 119 193 "/>
</clipPath>
<clipPath id="clip3">
  <path d="M 56 234 L 187 234 L 187 306.457031 L 56 306.457031 Z M 56 234 "/>
</clipPath>
<clipPath id="clip4">
  <path d="M 64 253 L 160 253 L 160 306.457031 L 64 306.457031 Z M 64 253 "/>
</clipPath>
<clipPath id="clip5">
  <path d="M 96 232 L 225 232 L 225 306.457031 L 96 306.457031 Z M 96 232 "/>
</clipPath>
<clipPath id="clip6">
  <path d="M 121 253 L 217 253 L 217 306.457031 L 121 306.457031 Z M 121 253 "/>
</clipPath>
<clipPath id="clip7">
  <path d="M 51.222656 64 L 141 64 L 141 164 L 51.222656 164 Z M 51.222656 64 "/>
</clipPath>
<clipPath id="clip8">
  <path d="M 51.222656 68 L 71 68 L 71 94 L 51.222656 94 Z M 51.222656 68 "/>
</clipPath>
<clipPath id="clip9">
  <path d="M 51.222656 49 L 91 49 L 91 111 L 51.222656 111 Z M 51.222656 49 "/>
</clipPath>
<clipPath id="clip10">
  <path d="M 51.222656 53 L 90 53 L 90 114 L 51.222656 114 Z M 51.222656 53 "/>
</clipPath>
<clipPath id="clip11">
  <path d="M 51.222656 57 L 90 57 L 90 118 L 51.222656 118 Z M 51.222656 57 "/>
</clipPath>
<clipPath id="clip12">
  <path d="M 51.222656 60 L 90 60 L 90 121 L 51.222656 121 Z M 51.222656 60 "/>
</clipPath>
<clipPath id="clip13">
  <path d="M 121 10.015625 L 184 10.015625 L 184 55 L 121 55 Z M 121 10.015625 "/>
</clipPath>
<clipPath id="clip14">
  <path d="M 120 10.015625 L 170 10.015625 L 170 48 L 120 48 Z M 120 10.015625 "/>
</clipPath>
<clipPath id="clip15">
  <path d="M 175 53 L 304.222656 53 L 304.222656 125 L 175 125 Z M 175 53 "/>
</clipPath>
<clipPath id="clip16">
  <path d="M 130 10.015625 L 304.222656 10.015625 L 304.222656 165 L 130 165 Z M 130 10.015625 "/>
</clipPath>
<clipPath id="clip17">
  <path d="M 91 102 L 304.222656 102 L 304.222656 195 L 91 195 Z M 91 102 "/>
</clipPath>
</defs>
<g id="surface1">
<path style=" stroke:none;fill-rule:nonzero;fill:rgb(85.882353%,85.490196%,100%);fill-opacity:1;" d="M 189.691406 158.984375 L 302.136719 277.210938 L 108.527344 275.765625 L -3.917969 157.539062 Z M 189.691406 158.984375 "/>
<path style=" stroke:none;fill-rule:nonzero;fill:rgb(93.72549%,90.196078%,9.411765%);fill-opacity:0.309804;" d="M 296.722656 67.101562 C 296.722656 30.042969 266.613281 0 229.472656 0 C 192.332031 0 162.222656 30.042969 162.222656 67.101562 C 162.222656 104.15625 192.332031 134.199219 229.472656 134.199219 C 266.613281 134.199219 296.722656 104.15625 296.722656 67.101562 Z M 296.722656 67.101562 "/>
<g clip-path="url(#clip1)" clip-rule="nonzero">
<path style="fill:none;stroke-width:6;stroke-linecap:butt;stroke-linejoin:miter;stroke:rgb(100%,69.019608%,0%);stroke-opacity:1;stroke-miterlimit:10;" d="M 341.445312 389.567859 L 341.445312 610.340402 " transform="matrix(0.5,0,0,0.500745,0,0)"/>
</g>
<g clip-path="url(#clip2)" clip-rule="nonzero">
<path style="fill:none;stroke-width:6;stroke-linecap:butt;stroke-linejoin:miter;stroke:rgb(100%,69.019608%,0%);stroke-opacity:1;stroke-miterlimit:10;" d="M 242.101562 389.567859 L 242.101562 610.340402 " transform="matrix(0.5,0,0,0.500745,0,0)"/>
</g>
<path style="fill:none;stroke-width:6;stroke-linecap:butt;stroke-linejoin:miter;stroke:rgb(100%,69.019608%,0%);stroke-opacity:1;stroke-miterlimit:10;" d="M 342.40625 574.846424 L 243.320312 574.846424 " transform="matrix(0.5,0,0,0.500745,0,0)"/>
<path style="fill-rule:nonzero;fill:rgb(100%,100%,100%);fill-opacity:1;stroke-width:6;stroke-linecap:butt;stroke-linejoin:miter;stroke:rgb(38.431373%,63.921569%,21.568627%);stroke-opacity:1;stroke-miterlimit:10;" d="M 226.320312 359.979143 L 358.195312 359.979143 C 362.625 359.979143 366.210938 363.505139 366.210938 367.858026 L 366.210938 381.696777 C 366.210938 386.041864 362.625 389.567859 358.195312 389.567859 L 226.320312 389.567859 C 221.890625 389.567859 218.296875 386.041864 218.296875 381.696777 L 218.296875 367.858026 C 218.296875 363.505139 221.890625 359.979143 226.320312 359.979143 Z M 226.320312 359.979143 " transform="matrix(0.5,0,0,0.500745,0,0)"/>
<path style=" stroke:none;fill-rule:nonzero;fill:rgb(100%,72.156863%,9.803922%);fill-opacity:1;" d="M 122.265625 73.527344 C 118.175781 72.398438 112.523438 59.917969 118.71875 53.15625 C 124.910156 46.398438 138.03125 46.195312 149.171875 47.835938 C 159.46875 49.351562 172.992188 55.226562 167.839844 67.894531 C 160.507812 85.90625 122.265625 73.527344 122.265625 73.527344 Z M 122.265625 73.527344 "/>
<path style=" stroke:none;fill-rule:nonzero;fill:rgb(95.686275%,61.176471%,0%);fill-opacity:1;" d="M 128.425781 65.027344 C 124.5625 64.222656 117.925781 57.902344 123.757812 53.09375 C 129.589844 48.285156 138.574219 47.816406 148.144531 49.425781 C 157.710938 51.03125 167.625 54.355469 163.074219 63.476562 C 158.523438 72.59375 128.425781 65.027344 128.425781 65.027344 Z M 128.425781 65.027344 "/>
<path style=" stroke:none;fill-rule:nonzero;fill:rgb(85.882353%,85.490196%,100%);fill-opacity:1;" d="M 105.628906 304.527344 C 108.125 306.039062 123.410156 305.949219 126.292969 304.527344 C 129.179688 303.101562 128.503906 298.285156 128.984375 295.074219 C 129.464844 291.859375 136.289062 285.8125 136.671875 283.730469 C 137.054688 281.648438 129.65625 277.117188 128.371094 275.269531 C 129.429688 278.335938 118.84375 279.007812 117.992188 277.019531 C 118.40625 284.300781 112.964844 295.871094 108.503906 296.914062 C 105.695312 297.574219 103.128906 303.015625 105.628906 304.527344 Z M 105.628906 304.527344 "/>
<path style=" stroke:none;fill-rule:nonzero;fill:rgb(76.470588%,43.529412%,4.313725%);fill-opacity:1;" d="M 115.710938 269.058594 L 117.996094 277.019531 C 118.84375 279.007812 129.429688 278.335938 128.378906 275.269531 C 127.324219 272.199219 127.722656 266.871094 127.722656 266.871094 Z M 115.710938 269.058594 "/>
<g clip-path="url(#clip3)" clip-rule="nonzero">
<path style="fill:none;stroke-width:7;stroke-linecap:round;stroke-linejoin:miter;stroke:rgb(38.431373%,63.921569%,21.568627%);stroke-opacity:1;stroke-miterlimit:10;" d="M 273.34375 566.639904 C 272.570312 570.789969 258.921875 582.873524 257.953125 589.293643 C 256.992188 595.713763 258.34375 605.332241 252.578125 608.163958 C 246.8125 610.995675 216.242188 611.182896 211.242188 608.163958 " transform="matrix(0.5,0,0,0.500745,0,0)"/>
</g>
<g clip-path="url(#clip4)" clip-rule="nonzero">
<path style="fill:none;stroke-width:6;stroke-linecap:round;stroke-linejoin:miter;stroke:rgb(100%,100%,100%);stroke-opacity:1;stroke-miterlimit:10;" d="M 234.804688 592.92885 C 234.804688 592.92885 224.664062 588.482352 214.570312 591.977144 " transform="matrix(0.5,0,0,0.500745,0,0)"/>
</g>
<path style=" stroke:none;fill-rule:nonzero;fill:rgb(85.882353%,85.490196%,100%);fill-opacity:1;" d="M 175.269531 304.527344 C 172.769531 306.039062 159.175781 305.949219 156.292969 304.527344 C 153.40625 303.101562 151.667969 298.285156 151.1875 295.074219 C 150.707031 291.859375 146.054688 284.625 145.671875 282.546875 C 145.285156 280.460938 152.6875 275.929688 153.972656 274.082031 C 152.914062 277.148438 163.257812 279.007812 164.113281 277.019531 C 163.695312 284.300781 167.929688 295.871094 172.390625 296.914062 C 175.199219 297.574219 177.765625 303.015625 175.269531 304.527344 Z M 175.269531 304.527344 "/>
<path style=" stroke:none;fill-rule:nonzero;fill:rgb(76.470588%,43.529412%,4.313725%);fill-opacity:1;" d="M 169.289062 268.585938 L 164.105469 277.019531 C 163.257812 279.007812 152.914062 277.148438 153.964844 274.082031 C 155.019531 271.015625 155.34375 266.160156 155.34375 266.160156 Z M 169.289062 268.585938 "/>
<g clip-path="url(#clip5)" clip-rule="nonzero">
<path style="fill:none;stroke-width:7;stroke-linecap:round;stroke-linejoin:miter;stroke:rgb(38.431373%,63.921569%,21.568627%);stroke-opacity:1;stroke-miterlimit:10;" d="M 291.34375 564.268438 C 292.109375 568.418504 301.414062 582.873524 302.375 589.293643 C 303.335938 595.713763 306.820312 605.332241 312.585938 608.163958 C 318.359375 610.995675 345.539062 611.182896 350.539062 608.163958 " transform="matrix(0.5,0,0,0.500745,0,0)"/>
</g>
<g clip-path="url(#clip6)" clip-rule="nonzero">
<path style="fill:none;stroke-width:6;stroke-linecap:round;stroke-linejoin:miter;stroke:rgb(100%,100%,100%);stroke-opacity:1;stroke-miterlimit:10;" d="M 326.984375 592.92885 C 326.984375 592.92885 337.101562 588.482352 347.21875 591.977144 " transform="matrix(0.5,0,0,0.500745,0,0)"/>
</g>
<path style=" stroke:none;fill-rule:nonzero;fill:rgb(24.705882%,30.196078%,47.45098%);fill-opacity:1;" d="M 170.675781 148.257812 C 170.675781 148.257812 220.957031 172.476562 220.957031 187.371094 C 220.957031 213.941406 175.984375 269.984375 168.261719 269.25 C 160.539062 268.515625 152.929688 266.90625 153.226562 263.691406 C 153.523438 260.476562 169.699219 210.078125 182.265625 195.15625 C 182.265625 195.15625 177.679688 188.054688 149.015625 188.367188 C 135.199219 188.515625 123.15625 189.441406 122.859375 189.878906 C 122.5625 190.316406 137.878906 219.710938 130.0625 265.160156 C 129.378906 269.121094 112.535156 270.78125 110.90625 268.589844 C 109.273438 266.398438 83.128906 189.222656 85.652344 183.082031 C 88.175781 176.941406 114.382812 154.945312 127.164062 148.253906 C 136.371094 143.4375 170.675781 148.257812 170.675781 148.257812 Z M 170.675781 148.257812 "/>
<path style=" stroke:none;fill-rule:nonzero;fill:rgb(100%,69.019608%,0%);fill-opacity:1;" d="M 185.035156 71.472656 C 191.410156 74.914062 200.9375 105.785156 200.9375 105.785156 C 200.9375 105.785156 223.898438 78.070312 224.960938 77.808594 C 226.023438 77.550781 232.191406 85.644531 232.191406 85.644531 C 232.191406 85.644531 220.207031 138.273438 201.507812 139.441406 C 193.65625 139.933594 187.019531 135.457031 181.570312 128.914062 C 179.15625 136.832031 176.902344 143.359375 176.902344 143.359375 C 175.9375 146.683594 193.957031 155.835938 189.84375 158.351562 C 189.84375 158.351562 175.816406 153.863281 151.058594 160.140625 C 121.460938 167.652344 107.152344 161.953125 109.949219 159.769531 C 112.746094 157.585938 117.140625 150.484375 118.660156 145.734375 L 115.929688 120.171875 C 115.929688 120.171875 106.371094 144.019531 91.929688 144.019531 C 74.699219 144.019531 58.949219 92.222656 58.949219 92.222656 C 65.074219 92.050781 70.148438 87.75 70.148438 87.75 C 76.625 92.222656 90.101562 107.890625 90.101562 107.890625 C 90.101562 107.890625 98.5 82.921875 102.523438 77.242188 C 106.550781 71.5625 119.667969 67.089844 128.425781 65.027344 L 163.074219 63.476562 C 165.402344 63.039062 179.609375 67.828125 185.035156 71.472656 Z M 185.035156 71.472656 "/>
<g clip-path="url(#clip7)" clip-rule="nonzero">
<path style="fill:none;stroke-width:6;stroke-linecap:butt;stroke-linejoin:miter;stroke:rgb(95.686275%,61.176471%,0%);stroke-opacity:1;stroke-miterlimit:10;" d="M 180.203125 213.369513 C 188.96875 223.268822 196.882812 240.867594 196.882812 240.867594 " transform="matrix(0.5,0,0,0.500745,0,0)"/>
</g>
<path style="fill:none;stroke-width:6;stroke-linecap:butt;stroke-linejoin:miter;stroke:rgb(95.686275%,61.176471%,0%);stroke-opacity:1;stroke-miterlimit:10;" d="M 235.25 137.373396 C 268.898438 134.580683 302.679688 155.362212 302.679688 155.362212 C 302.679688 155.362212 332.375 148.825079 338.3125 129.416504 " transform="matrix(0.5,0,0,0.500745,0,0)"/>
<path style="fill:none;stroke-width:6;stroke-linecap:round;stroke-linejoin:miter;stroke:rgb(95.686275%,61.176471%,0%);stroke-opacity:1;stroke-miterlimit:10;" d="M 352.835938 286.292085 C 352.835938 286.292085 371.40625 233.917015 374 211.82494 " transform="matrix(0.5,0,0,0.500745,0,0)"/>
<g clip-path="url(#clip8)" clip-rule="nonzero">
<path style=" stroke:none;fill-rule:nonzero;fill:rgb(76.470588%,43.529412%,4.313725%);fill-opacity:1;" d="M 59.433594 73.324219 C 59.660156 74.734375 61.222656 76.925781 59.675781 76.910156 C 58.878906 76.910156 53.117188 75.988281 52.414062 78.070312 C 52.117188 79.0625 52.167969 80.121094 52.566406 81.078125 C 51.304688 82.933594 52.269531 84.449219 52.269531 84.449219 C 51.503906 85.601562 51.304688 87.09375 51.835938 87.753906 C 51.835938 87.753906 50.5 90.78125 51.773438 91.480469 C 55.722656 93.667969 62.023438 94.121094 65.074219 93.34375 C 67.214844 92.800781 69.785156 91.5 70.441406 87.015625 C 70.710938 85.183594 68.851562 80.371094 67.433594 78.382812 C 66.851562 77.566406 64.730469 74.3125 64.015625 73.417969 C 62.992188 72.109375 62.296875 70.585938 61.980469 68.96875 C 61.980469 68.96875 58.804688 69.378906 59.433594 73.324219 Z M 59.433594 73.324219 "/>
</g>
<g clip-path="url(#clip9)" clip-rule="nonzero">
<path style="fill:none;stroke-width:4;stroke-linecap:round;stroke-linejoin:miter;stroke:rgb(71.372549%,35.294118%,9.411765%);stroke-opacity:1;stroke-miterlimit:10;" d="M 108.539062 155.354411 C 108.257812 157.250023 120.023438 157.647868 122.0625 158.084717 C 124.953125 158.700986 124.578125 164.777867 120.820312 164.185 C 115.710938 163.958775 110.632812 163.233294 105.664062 162.03976 " transform="matrix(0.5,0,0,0.500745,0,0)"/>
</g>
<g clip-path="url(#clip10)" clip-rule="nonzero">
<path style="fill:none;stroke-width:4;stroke-linecap:round;stroke-linejoin:miter;stroke:rgb(71.372549%,35.294118%,9.411765%);stroke-opacity:1;stroke-miterlimit:10;" d="M 105.304688 168.709508 C 117.75 171.174584 121.078125 170.940558 121.078125 170.940558 C 122.890625 171.291597 125.226562 164.996291 120.820312 164.185 " transform="matrix(0.5,0,0,0.500745,0,0)"/>
</g>
<g clip-path="url(#clip11)" clip-rule="nonzero">
<path style="fill:none;stroke-width:4;stroke-linecap:round;stroke-linejoin:miter;stroke:rgb(71.372549%,35.294118%,9.411765%);stroke-opacity:1;stroke-miterlimit:10;" d="M 104.992188 175.028216 C 116.710938 177.555699 120.765625 177.267067 120.765625 177.267067 C 122.5 177.469889 124.671875 171.478818 121.125 171.065372 " transform="matrix(0.5,0,0,0.500745,0,0)"/>
</g>
<g clip-path="url(#clip12)" clip-rule="nonzero">
<path style="fill:none;stroke-width:4;stroke-linecap:round;stroke-linejoin:miter;stroke:rgb(71.372549%,35.294118%,9.411765%);stroke-opacity:1;stroke-miterlimit:10;" d="M 117.484375 177.165655 C 117.484375 177.165655 121.671875 176.783412 121.609375 179.342099 C 121.492188 183.89781 119.25 184.381464 108.648438 182.47025 " transform="matrix(0.5,0,0,0.500745,0,0)"/>
</g>
<path style=" stroke:none;fill-rule:nonzero;fill:rgb(76.470588%,43.529412%,4.313725%);fill-opacity:1;" d="M 233.339844 66.316406 C 233.292969 67.742188 232.027344 70.082031 233.542969 69.878906 C 234.332031 69.773438 239.898438 68.1875 240.847656 70.152344 C 241.265625 71.09375 241.34375 72.148438 241.070312 73.136719 C 242.542969 74.8125 241.78125 76.421875 241.78125 76.421875 C 242.671875 77.472656 243.058594 78.917969 242.613281 79.632812 C 242.613281 79.632812 244.304688 82.453125 243.136719 83.300781 C 239.515625 85.925781 233.359375 87.125 230.253906 86.722656 C 228.082031 86.441406 225.382812 85.464844 224.179688 81.125 C 223.699219 79.351562 224.925781 74.394531 226.078125 72.257812 C 226.550781 71.382812 228.238281 67.921875 228.839844 66.953125 C 229.679688 65.542969 230.175781 63.957031 230.289062 62.324219 C 230.289062 62.324219 233.472656 62.351562 233.339844 66.316406 Z M 233.339844 66.316406 "/>
<path style=" stroke:none;fill-rule:nonzero;fill:rgb(76.470588%,43.529412%,4.313725%);fill-opacity:1;" d="M 240.609375 83.503906 C 235.503906 85.078125 234.363281 84.96875 234.023438 82.730469 C 233.917969 82.019531 234.535156 81.695312 235.09375 81.542969 C 234.835938 81.59375 234.574219 81.628906 234.3125 81.652344 C 233.535156 81.839844 232.21875 79.234375 233.386719 78.515625 C 232.902344 78.277344 232.390625 76.574219 232.394531 75.0625 C 231.492188 74.453125 231.425781 72.636719 232.476562 72.273438 C 233.460938 71.933594 239.234375 71.027344 238.992188 70.113281 Z M 240.609375 83.503906 "/>
<path style="fill:none;stroke-width:3;stroke-linecap:round;stroke-linejoin:miter;stroke:rgb(71.372549%,35.294118%,9.411765%);stroke-opacity:1;stroke-miterlimit:10;" d="M 481.03125 146.250791 C 476.460938 147.982585 471.742188 149.300932 466.921875 150.182431 C 463.296875 151.204346 462.171875 145.26788 464.953125 144.316174 C 466.921875 143.637498 476.164062 140.680966 477.984375 140.00229 " transform="matrix(0.5,0,0,0.500745,0,0)"/>
<path style="fill:none;stroke-width:3;stroke-linecap:round;stroke-linejoin:miter;stroke:rgb(71.372549%,35.294118%,9.411765%);stroke-opacity:1;stroke-miterlimit:10;" d="M 482.210938 152.787923 C 470.25 156.696161 467.515625 156.875581 467.515625 156.875581 C 465.773438 157.429443 462.6875 151.50858 466.921875 150.182431 " transform="matrix(0.5,0,0,0.500745,0,0)"/>
<path style="fill:none;stroke-width:3;stroke-linecap:round;stroke-linejoin:miter;stroke:rgb(71.372549%,35.294118%,9.411765%);stroke-opacity:1;stroke-miterlimit:10;" d="M 483.867188 158.958415 C 472.640625 162.851051 468.601562 163.046073 468.601562 163.046073 C 466.914062 163.459519 464.5625 157.242222 468.695312 156.703962 " transform="matrix(0.5,0,0,0.500745,0,0)"/>
<path style="fill:none;stroke-width:3;stroke-linecap:round;stroke-linejoin:miter;stroke:rgb(71.372549%,35.294118%,9.411765%);stroke-opacity:1;stroke-miterlimit:10;" d="M 471.851562 162.57802 C 471.851562 162.57802 467.671875 162.702834 468.046875 165.214716 C 468.726562 169.684617 471 169.903041 481.210938 166.759289 " transform="matrix(0.5,0,0,0.500745,0,0)"/>
<path style=" stroke:none;fill-rule:nonzero;fill:rgb(76.470588%,43.529412%,4.313725%);fill-opacity:1;" d="M 135.773438 42.828125 C 135.773438 42.828125 139.453125 59.003906 128.425781 65.027344 C 128.425781 65.027344 138.566406 66.746094 151.527344 77.242188 C 151.527344 77.242188 161.5 68.984375 163.074219 63.472656 C 163.074219 63.472656 152.933594 60.035156 153.976562 42.820312 Z M 135.773438 42.828125 "/>
<path style=" stroke:none;fill-rule:nonzero;fill:rgb(71.372549%,35.294118%,9.411765%);fill-opacity:1;" d="M 135.773438 42.828125 L 153.976562 42.828125 C 152.925781 60.035156 163.074219 63.480469 163.074219 63.480469 C 163.074219 63.480469 142.835938 63.480469 137.113281 45.738281 Z M 135.773438 42.828125 "/>
<path style=" stroke:none;fill-rule:nonzero;fill:rgb(76.470588%,43.529412%,4.313725%);fill-opacity:1;" d="M 135.078125 42.667969 C 135.078125 42.667969 140.484375 53.03125 153.402344 53.035156 C 164.921875 53.035156 166.679688 19.78125 149.523438 19.324219 C 133.171875 18.886719 135.277344 37.910156 135.277344 37.910156 C 135.277344 37.910156 132.335938 36.226562 131.265625 37.980469 C 130.195312 39.730469 135.078125 42.667969 135.078125 42.667969 Z M 135.078125 42.667969 "/>
<g clip-path="url(#clip13)" clip-rule="nonzero">
<path style="fill:none;stroke-width:3;stroke-linecap:round;stroke-linejoin:miter;stroke:rgb(24.705882%,30.196078%,47.45098%);stroke-opacity:1;stroke-miterlimit:10;" d="M 285.296875 41.071603 C 285.296875 41.071603 285.671875 52.562291 301.875 52.390672 C 315.953125 52.242455 323.671875 60.058931 324.421875 65.691162 " transform="matrix(0.5,0,0,0.500745,0,0)"/>
</g>
<g clip-path="url(#clip14)" clip-rule="nonzero">
<path style=" stroke:none;fill-rule:nonzero;fill:rgb(24.705882%,30.196078%,47.45098%);fill-opacity:1;" d="M 120.425781 31.933594 C 120.425781 38.207031 128.125 43.628906 136.648438 47.308594 C 137.152344 47.527344 137.96875 47.578125 139.003906 47.496094 C 137.445312 46.097656 136.121094 44.46875 135.078125 42.667969 C 135.078125 42.667969 130.222656 39.691406 131.273438 37.980469 C 132.324219 36.265625 135.285156 37.90625 135.285156 37.90625 C 135.285156 37.90625 133.8125 24.648438 142.839844 20.53125 C 142.910156 20.65625 145.253906 24.722656 152.183594 24.9375 C 158.773438 25.140625 160.570312 27.609375 161.324219 30.195312 C 161.347656 30.285156 161.375 30.371094 161.394531 30.460938 C 162.246094 33.898438 162.449219 37.457031 161.992188 40.964844 L 162.03125 40.949219 C 162.671875 40.1875 171.414062 29.292969 169.132812 23.449219 C 166.652344 17.097656 150.804688 8.140625 138.117188 10.359375 C 131.03125 11.601562 120.425781 28.636719 120.425781 31.933594 Z M 120.425781 31.933594 "/>
</g>
<path style=" stroke:none;fill-rule:nonzero;fill:rgb(78.039216%,74.901961%,100%);fill-opacity:1;" d="M 177.886719 121.832031 L 275.125 121.832031 C 276.457031 121.832031 277.757812 121.417969 278.839844 120.652344 C 279.921875 119.882812 280.734375 118.800781 281.160156 117.558594 L 301.769531 57.21875 C 301.992188 56.554688 302.058594 55.847656 301.949219 55.15625 C 301.84375 54.464844 301.574219 53.808594 301.15625 53.238281 C 300.742188 52.671875 300.195312 52.210938 299.5625 51.890625 C 298.929688 51.570312 298.226562 51.40625 297.515625 51.40625 L 200.28125 51.40625 C 198.945312 51.410156 197.644531 51.820312 196.5625 52.589844 C 195.480469 53.355469 194.667969 54.4375 194.246094 55.679688 L 173.648438 116.007812 C 173.417969 116.667969 173.355469 117.375 173.457031 118.070312 C 173.5625 118.761719 173.832031 119.417969 174.246094 119.988281 C 174.660156 120.558594 175.207031 121.023438 175.839844 121.34375 C 176.472656 121.664062 177.175781 121.832031 177.886719 121.832031 Z M 177.886719 121.832031 "/>
<g clip-path="url(#clip15)" clip-rule="nonzero">
<path style=" stroke:none;fill-rule:nonzero;fill:rgb(100%,100%,100%);fill-opacity:1;" d="M 180.105469 124.183594 L 277.34375 124.183594 C 278.679688 124.183594 279.980469 123.769531 281.0625 123.003906 C 282.144531 122.238281 282.957031 121.15625 283.378906 119.910156 L 303.980469 59.582031 C 304.207031 58.917969 304.269531 58.214844 304.164062 57.523438 C 304.058594 56.832031 303.785156 56.171875 303.371094 55.605469 C 302.957031 55.039062 302.410156 54.574219 301.777344 54.257812 C 301.144531 53.9375 300.445312 53.769531 299.734375 53.769531 L 202.5 53.769531 C 201.164062 53.773438 199.863281 54.1875 198.78125 54.953125 C 197.699219 55.71875 196.886719 56.800781 196.460938 58.042969 L 175.863281 118.375 C 175.636719 119.035156 175.574219 119.742188 175.679688 120.433594 C 175.785156 121.121094 176.058594 121.777344 176.472656 122.347656 C 176.886719 122.914062 177.429688 123.378906 178.0625 123.695312 C 178.695312 124.015625 179.394531 124.183594 180.105469 124.183594 Z M 180.105469 124.183594 "/>
</g>
<g clip-path="url(#clip16)" clip-rule="nonzero">
<path style="fill:none;stroke-width:6;stroke-linecap:butt;stroke-linejoin:miter;stroke:rgb(38.431373%,63.921569%,21.568627%);stroke-opacity:1;stroke-miterlimit:10;" d="M 355.773438 242.911423 L 550.25 242.911423 C 552.914062 242.911423 555.515625 242.084531 557.679688 240.555559 C 559.851562 239.026588 561.46875 236.865746 562.320312 234.377267 L 603.539062 113.900565 C 603.992188 112.574416 604.117188 111.162458 603.898438 109.781703 C 603.6875 108.400949 603.148438 107.090402 602.3125 105.959275 C 601.484375 104.820347 600.390625 103.899844 599.125 103.260173 C 597.859375 102.628302 596.453125 102.292864 595.03125 102.292864 L 400.5625 102.292864 C 397.890625 102.300665 395.289062 103.127558 393.125 104.656529 C 390.960938 106.1855 389.34375 108.346343 388.492188 110.827021 L 347.273438 231.303723 C 346.820312 232.629871 346.695312 234.041829 346.914062 235.422584 C 347.125 236.803339 347.664062 238.113886 348.5 239.245013 C 349.328125 240.38394 350.421875 241.304443 351.6875 241.944115 C 352.953125 242.583787 354.351562 242.911423 355.773438 242.911423 Z M 355.773438 242.911423 " transform="matrix(0.5,0,0,0.500745,0,0)"/>
</g>
<path style=" stroke:none;fill-rule:nonzero;fill:rgb(79.215686%,79.215686%,97.647059%);fill-opacity:1;" d="M 219.945312 102.726562 L 212.546875 120.832031 L 228.535156 120.832031 C 228.535156 120.832031 225.425781 106.667969 219.945312 102.726562 Z M 219.945312 102.726562 "/>
<path style="fill-rule:nonzero;fill:rgb(100%,100%,100%);fill-opacity:1;stroke-width:6;stroke-linecap:butt;stroke-linejoin:miter;stroke:rgb(38.431373%,63.921569%,21.568627%);stroke-opacity:1;stroke-miterlimit:10;" d="M 418.625 286.635324 C 481.585938 286.635324 455.109375 220.491711 442.585938 206.74657 L 491.046875 206.74657 C 503.5625 220.499512 537.429688 290.270531 474.476562 290.270531 L 418.625 290.270531 Z M 418.625 286.635324 " transform="matrix(0.5,0,0,0.500745,0,0)"/>
<path style=" stroke:none;fill-rule:nonzero;fill:rgb(79.215686%,79.215686%,97.647059%);fill-opacity:1;" d="M 236.035156 87.738281 C 234.679688 85.625 235.773438 82.550781 238.480469 80.871094 C 241.1875 79.191406 244.484375 79.542969 245.839844 81.65625 C 247.195312 83.769531 246.101562 86.84375 243.394531 88.523438 C 240.6875 90.203125 237.390625 89.851562 236.035156 87.738281 Z M 236.035156 87.738281 "/>
<path style="fill:none;stroke-width:6;stroke-linecap:butt;stroke-linejoin:miter;stroke:rgb(38.431373%,63.921569%,21.568627%);stroke-opacity:1;stroke-miterlimit:10;" d="M 468.976562 172.65675 C 466.265625 168.436477 468.453125 162.297189 473.867188 158.942813 C 479.28125 155.580636 485.875 156.282715 488.585938 160.502988 C 491.296875 164.723261 489.109375 170.87035 483.695312 174.224726 C 478.28125 177.579102 471.6875 176.877023 468.976562 172.65675 Z M 468.976562 172.65675 " transform="matrix(0.5,0,0,0.500745,0,0)"/>
<path style=" stroke:none;fill-rule:nonzero;fill:rgb(100%,100%,100%);fill-opacity:1;" d="M 281.589844 145.351562 L 137.414062 145.351562 C 135.292969 145.351562 133.574219 146.929688 133.574219 148.875 C 133.574219 150.820312 135.292969 152.394531 137.414062 152.394531 L 281.589844 152.394531 Z M 281.589844 145.351562 "/>
<g clip-path="url(#clip17)" clip-rule="nonzero">
<path style="fill:none;stroke-width:6;stroke-linecap:butt;stroke-linejoin:miter;stroke:rgb(38.431373%,63.921569%,21.568627%);stroke-opacity:1;stroke-miterlimit:10;" d="M 563.179688 290.270531 L 274.828125 290.270531 C 270.585938 290.270531 267.148438 293.422084 267.148438 297.30692 C 267.148438 301.191755 270.585938 304.335507 274.828125 304.335507 L 563.179688 304.335507 " transform="matrix(0.5,0,0,0.500745,0,0)"/>
</g>
</g>
</svg>
