<?xml version="1.0" encoding="UTF-8"?>
<svg width="290pt" height="293pt" version="1.1" viewBox="0 0 290 293" xmlns="http://www.w3.org/2000/svg">
<defs>
<clipPath id="g">
<path d="m116 0h153.19v132h-153.19z"/>
</clipPath>
<clipPath id="f">
<path d="m36.785 95h71.215v198h-71.215z"/>
</clipPath>
<clipPath id="e">
<path d="m36.785 88h216.21v79h-216.21z"/>
</clipPath>
<clipPath id="d">
<path d="m36.785 62h107.21v63h-107.21z"/>
</clipPath>
<clipPath id="c">
<path d="m36.785 72h96.215v46h-96.215z"/>
</clipPath>
<clipPath id="b">
<path d="m36.785 75h199.21v92h-199.21z"/>
</clipPath>
<clipPath id="a">
<path d="m36.785 33h135.21v120h-135.21z"/>
</clipPath>
</defs>
<path d="m285.18 160.61-284.96 96.832 140.11-175.34z" fill="#1a8ddf" fill-opacity=".21961"/>
<path transform="scale(.50086 .50086)" d="m449.3 373.31c0 2.4801-1.0763 4.8589-2.987 6.6137-1.9186 1.7548-4.5156 2.7375-7.2219 2.7375h-158.64c-2.7063 0-5.2955-0.9827-7.2141-2.7375-1.9108-1.7548-2.987-4.1336-2.987-6.6137 0-2.4801 1.0763-4.8589 2.987-6.6137 1.9186-1.7548 4.5078-2.7375 7.2141-2.7375h158.64c2.7063 0 5.3033 0.9827 7.2219 2.7375 1.9108 1.7548 2.987 4.1336 2.987 6.6137z" fill="#fff" stroke="#ffb000" stroke-miterlimit="10" stroke-width="5"/>
<path transform="scale(.50086 .50086)" d="m392.56 397.73h-59.717c-1.9108 0-3.7513-0.69413-5.1084-1.9342-1.357-1.2479-2.1135-2.9325-2.1135-4.6873v-8.4465h74.161v8.4543c-0.007799 1.7548-0.7643 3.4316-2.1213 4.6795-1.3492 1.2401-3.1898 1.9342-5.1006 1.9342z" fill="#fff" stroke="#ffb000" stroke-miterlimit="10" stroke-width="5"/>
<path transform="scale(.50086 .50086)" d="m354.88 512.34h15.621v-114.61h-15.621z" fill="#fff" stroke="#ffb000" stroke-miterlimit="10" stroke-width="5"/>
<path transform="scale(.50086 .50086)" d="m353.85 541.9h17.704c3.4472 0 6.247-2.5659 6.247-5.7246v-18.117c0-3.1587-2.7999-5.7246-6.247-5.7246h-17.704c-3.455 0-6.247 2.5659-6.247 5.7246v18.117c0 3.1587 2.7921 5.7246 6.247 5.7246z" fill="#fff" stroke="#ffb000" stroke-miterlimit="10" stroke-width="5"/>
<path transform="scale(.50086 .50086)" d="m431.83 568.53c0-7.0582-3.0572-13.836-8.5087-18.827-5.4515-4.9915-12.845-7.7992-20.55-7.7992h-80.158c-7.7054 0-15.099 2.8077-20.543 7.7992-5.4515 4.9915-8.5165 11.769-8.5165 18.827" fill="none" stroke="#99c879" stroke-miterlimit="10" stroke-width="5"/>
<path transform="scale(.50086 .50086)" d="m432.36 582.36c6.4264 0 11.636-4.7731 11.636-10.669 0-5.8884-5.2098-10.669-11.636-10.669-6.4342 0-11.644 4.7809-11.644 10.669 0 5.8962 5.2098 10.669 11.644 10.669z" fill="#fff" stroke="#ffb000" stroke-miterlimit="10" stroke-width="5"/>
<path transform="scale(.50086 .50086)" d="m292.82 582.36c6.4264 0 11.644-4.7731 11.644-10.669 0-5.8884-5.2176-10.669-11.644-10.669s-11.644 4.7809-11.644 10.669c0 5.8962 5.2176 10.669 11.644 10.669z" fill="#fff" stroke="#ffb000" stroke-miterlimit="10" stroke-width="5"/>
<path transform="scale(.50086 .50086)" d="m363.12 582.36c6.4264 0 11.636-4.7731 11.636-10.669 0-5.8884-5.2098-10.669-11.636-10.669s-11.644 4.7809-11.644 10.669c0 5.8962 5.2176 10.669 11.644 10.669z" fill="#fff" stroke="#ffb000" stroke-miterlimit="10" stroke-width="5"/>
<path d="m105.86 263.82c-2.6016 5.6562-4.9727 10.293-6.7812 13.336-1.3438 2.2617-3.6836 15.457-15.996 10.141-0.43359-0.1875 4.8594-1.4375 6.5273-12.355 0.58594-3.8242 1.1211-7.5156 1.6094-11.074 4.8125 0.30078 10.922 0.11719 14.641-0.046875z" fill="#ffcfc8"/>
<path d="m103.2 292.62s4.9531-15.715-1.6719-18.113c-2.1172-0.76562-4.6836 1.1719-5.3711 7.7852-0.59766 5.7812-9.8203 6.6797-10.688 2.9414 0 0-11.305 2.1094-11.305 7.3867z" fill="#3e4c78"/>
<path d="m109.21 263.64s-13.688 0.89844-20.891-0.042969c0 0-9.5586-91.379-8.1289-100.78 1.7188-11.309 42.812-21.336 64.055-24.512l3.9141-16.242s28.742-0.46875 44.973-0.46875c0 0 17.383 28.34 15.594 47.078-1.793 18.738-39.27 14.484-89.324 14.484 0 0 15.262 28.227-10.191 80.484z" fill="#99c879"/>
<path d="m150.91 264.27c-3.8086 0.30859-7.6367 0.28125-11.441-0.085937 1.2773 4.5547 2.4609 8.9023 3.3984 12.781 0.60547 2.4922-3.2891 5.8555-4.3984 8.3047l0.089844-0.039062c5.1094-0.74609 11.969 3.6914 11.266-3.2344-0.70703-6.9219 0.375-8.6484 1.0859-17.727z" fill="#ffcfc8"/>
<path d="m149.67 276.9c1.7578 0 4.6172 2.9141 4.332 7.5781-0.16016 2.7852-0.78906 5.5273-1.8633 8.1367h-19.77c0.34766-5.0234 6.1914-7.3867 6.1914-7.3867 5.1094-0.74609 11.715 3.6914 11.008-3.2344z" fill="#3e4c78"/>
<path d="m165.15 147.09s-43.566 7.2148-48.516 19.172c-4.9453 11.957 18.137 97.375 18.137 97.375 13.387 1.875 20.25 0 20.25 0 13.922-58.496-2.3906-77.898-2.3906-77.898 32.441-1.2656 52.914 1.5547 56.094-17.047 1.0156-5.9102-6.2344-28.504-43.574-21.602z" fill="#99c879"/>
<path transform="scale(.50086 .50086)" d="m328.2 293.68s-86.983 14.405-96.864 38.278c-9.8814 23.873 36.211 194.42 36.211 194.42" fill="none" stroke="#fff" stroke-miterlimit="10" stroke-width="5"/>
<path d="m154.8 108.81c2.5859-5.3633-8.9062-12.41-20.672-9.6016 0 0 3.9688-43.258 13.266-48.707 9.0234-5.2891 11.195 19.621 11.504 25.703-0.011719 0 1.6562 23.531-4.0977 32.605z" fill="#d2a8e6"/>
<path d="m153.79 110.12c5.6953-4.6836-6.0859-14.215-19.66-10.906-8.4922 1.207-41.5 7.6562-44.605 9.1328-3.0312 1.2422-11.785 5.2773-12.898 6.5-1.4062 1.5469-1.6211 5.6367-1.5352 6.1758 0.085938 0.53906 1.2383 3.3438 1.2383 3.3438s2.2109-0.21094 1.9297-2.4141c-0.33594-2.6211 2.2109-3.4336 3.9141-4.1367 0.71094-0.28906 2.5547-0.17188 2.8789 0.81641 0.32422 0.98438-2.3672 2.1797-2.8125 2.8945-0.66016 1.082 0.10547 2.293 0.12109 2.3164 0.015625 0.027344 4.1055-2.0156 4.8945-2.4023 0.72656-0.35156 4.1406-4.0039 5.5859-7.2188 0.011719 0 50.945 4.1367 60.949-4.1016z" fill="#ffc0b7"/>
<path d="m147.47 27.23c-0.95703-2.1328-4.9297-13.176 1.5078-17.945 6.4336-4.7656 14.926-9.6602 25.195-8.8984s13.133 13.293 18.953 15.305c5.8203 2.0156 12.922-0.375 19.633 5.1523 6.7109 5.5312-0.25781 14.23 6.582 18.875 6.8359 4.6445 13.426-1.2305 20.277 6.9766 7.8516 9.4102-3.6172 20.285 7.5312 21.223 12.324 1.0352 19.762 20.156 14.469 32.848h-64.203c-40.996-5.8047-49.945-73.535-49.945-73.535z" fill="#ffb000"/>
<g clip-path="url(#g)">
<path transform="scale(.50086 .50086)" d="m303.27 17.221c12.494-10.139 27.016-16.885 47.566-15.965 20.543 0.9203 28.443 21.892 40.204 25.651 11.761 3.7592 26.587-1.5442 40.376 9.3512 13.796 10.903 0.51474 30.269 14.522 39.355 14.015 9.086 26.704-3.3224 40.976 13.056 16.362 18.788-5.7323 40.22 16.581 41.46 24.676 1.3805 40.797 29.964 28.412 62.37" fill="none" stroke="#ffb000" stroke-miterlimit="10" stroke-width="5"/>
</g>
<path d="m147.96 121.9s-3.6367-27.184-5.5625-28.609c-4.3242-3.1992-7.7617-7.7852-5.957-14.121 1.0195-3.5781 9.2383-27.285 10.988-28.793 1.7539-1.5039 13.242-5.2695 13.242-5.2695h32.465c3.6953 1.1289 15.301 4.9531 18.074 8.8477 13.547 19.008 17.879 49.5 17.879 49.5h-16.844s-8.1094-16.676-10.992-16.863c-2.8828-0.19141-8.2852 35.074-8.2852 35.074s-18.469 4.6953-45.008 0.23438z" fill="#d2a8e6"/>
<path transform="scale(.50086 .50086)" d="m294.9 243.39s-7.2687-54.274-11.114-57.121c-8.6257-6.3875-16.004-16.012-12.4-28.662" fill="none" stroke="#fff" stroke-miterlimit="10" stroke-width="5"/>
<path transform="scale(.50086 .50086)" d="m340.87 96.663s-29.855 52.2-22.453 151.41" fill="none" stroke="#fff" stroke-miterlimit="10" stroke-width="5"/>
<path transform="scale(.50086 .50086)" d="m337.31 140.85c2.1681 0 3.9307-1.6144 3.9307-3.6032 0-1.9966-1.7626-3.611-3.9307-3.611-2.1759 0-3.9385 1.6144-3.9385 3.611 0 1.9888 1.7626 3.6032 3.9385 3.6032z" fill="none" stroke="#fff" stroke-miterlimit="10" stroke-width="5"/>
<path transform="scale(.50086 .50086)" d="m331.91 167.29c2.1759 0 3.9385-1.6144 3.9385-3.6032s-1.7626-3.6032-3.9385-3.6032-3.9385 1.6144-3.9385 3.6032 1.7626 3.6032 3.9385 3.6032z" fill="none" stroke="#fff" stroke-miterlimit="10" stroke-width="5"/>
<path transform="scale(.50086 .50086)" d="m329.03 193.82c2.1759 0 3.9385-1.6144 3.9385-3.6032s-1.7626-3.6032-3.9385-3.6032c-2.1681 0-3.9307 1.6144-3.9307 3.6032s1.7626 3.6032 3.9307 3.6032z" fill="none" stroke="#fff" stroke-miterlimit="10" stroke-width="5"/>
<path d="m227.22 110.87c-8.3398 8.0352-62.266-2.7109-62.266-2.7109s-2.8125 4.0703-6.1055 4.2148c-3.293 0.14844-6.4062-0.91797-8.0781 0.375-1.6719 1.293-3.3594 3.543-4.668 3.7734-1.5547 0.29297-3.1484 0.35547-4.7266 0.18359 0.5625-1.4141 1.2031-2.7969 1.9297-4.1445-0.99609 0.73828-2.2305 2.0898-2.9531 2.6562-0.30078 0.25391-0.6875 0.41016-1.0977 0.44141-0.41016 0.03125-0.82031-0.0625-1.1602-0.27344 0 0 2.1562-3.0195 3.0078-3.8281 0.85156-0.80859 3.4609-2.8359 4.9102-3.2969 1.7109-0.67188 11.723-5.1641 16.719-5.9102 5.3008-0.78516 48.211-3.4336 48.211-3.4336 15.523-0.007813 23.281 5.207 16.277 11.953z" fill="#ffcfc8"/>
<path transform="scale(.50086 .50086)" d="m285.49 232.08s6.1924-9.8581 8.2592-10.903c3.6499-1.8406 8.4152-4.2583 8.4152-4.2583" fill="none" stroke="#ffb0af" stroke-linecap="round" stroke-miterlimit="10" stroke-width="3"/>
<path transform="scale(.50086 .50086)" d="m289.77 231.9s5.4671-8.1033 7.5339-9.1484c3.6499-1.8406 8.4152-4.2661 8.4152-4.2661" fill="none" stroke="#ffb0af" stroke-linecap="round" stroke-miterlimit="10" stroke-width="3"/>
<path d="m173.82 26.863s4.5156 12.977 19.305 18.246c0 0-20.746 8.2852-32.465 0v-17.871z" fill="#ffcfc8"/>
<path d="m163.66 46.801c-1.0547-0.46875-2.0547-1.0352-2.9844-1.6914v-17.871l13.148-0.375s0.125 0.36328 0.40625 1c1.3438 5.4766-2.2852 16.844-10.57 18.938z" fill="#ffc0b7"/>
<path d="m173.47 28.859c-0.13672 4.2695-8.8984 14.309-13.691 14.309-3.9727 0-11.391-10.98-12.324-15.93-0.95703-5.0898 0.011719-14.121 7.9375-14.25 4.8984-0.074219 7.4141 4.1406 8.8828 9.0273 1.7891 5.9023 7.2773 4.5781 7.2773 4.5781s1.5742-3.2812 3.7656-1.6406c2.1875 1.6406-1.8477 3.9062-1.8477 3.9062z" fill="#ffcfc8"/>
<g clip-path="url(#f)">
<path transform="scale(.50086 .50086)" d="m92.138 584.24 25.518-322.12 25.518 322.8" fill="none" stroke="#ffb000" stroke-miterlimit="10" stroke-width="5"/>
</g>
<path d="m45.023 131.28h168.29c1.0508 0 2.0586-0.38281 2.8008-1.0625 0.74609-0.68359 1.1641-1.6055 1.1641-2.5703 0-0.96094-0.41797-1.8867-1.1602-2.5703-0.74609-0.67969-1.7539-1.0625-2.8047-1.0625h-168.29z" fill="#fff"/>
<g clip-path="url(#e)">
<path transform="scale(.50086 .50086)" d="m89.892 262.11h335.99c2.0979 0 4.1101-0.76432 5.5919-2.1214 1.4896-1.3649 2.3241-3.2055 2.3241-5.1319 0-1.9186-0.8345-3.767-2.3163-5.1319-1.4896-1.3571-3.5018-2.1214-5.5997-2.1214h-335.99" fill="none" stroke="#ffb000" stroke-miterlimit="10" stroke-width="5"/>
</g>
<g clip-path="url(#d)">
<path transform="scale(.50086 .50086)" d="m222.98 138.11h-135.59c-1.4974 0-2.9636 0.32756-4.2895 0.9593-1.3258 0.63953-2.4645 1.552-3.3146 2.6751-0.85789 1.1231-1.4038 2.4177-1.5988 3.7748-0.18718 1.3571-0.015599 2.7375 0.49914 4.0244l34.191 85.112h158.77l-35.369-88.045c-1.0061-2.4957-2.8154-4.6483-5.1942-6.1691s-5.2098-2.332-8.111-2.332z" fill="none" stroke="#000" stroke-miterlimit="10"/>
</g>
<path d="m112.29 69.172h-68.16c-3.1523 0-5.3398 3.0586-4.25 5.9492l14.824 39.441c0.29688 0.84766 0.875 1.5898 1.6562 2.1211 0.77734 0.53125 1.7188 0.82812 2.6914 0.84375h76.246l-16.508-43.93c-1-2.6602-3.5938-4.4258-6.5-4.4258z" fill="#fff"/>
<g clip-path="url(#c)">
<path d="m109.48 72.125h-68.16c-0.73047 0-1.4492 0.16016-2.0938 0.46875-0.64844 0.30859-1.2031 0.75781-1.6211 1.3047-0.41797 0.55078-0.68359 1.1836-0.77734 1.8477-0.09375 0.66016-0.011719 1.3359 0.24219 1.9648l14.824 37.035c0.32812 0.8125 0.91797 1.5195 1.6953 2.0156 0.77734 0.49609 1.7031 0.76562 2.6523 0.76562h76.246l-16.504-41.25c-0.49219-1.2188-1.3789-2.2695-2.5391-3.0117-1.1641-0.74219-2.5469-1.1406-3.9648-1.1406z" fill="#62a336" fill-opacity=".14902"/>
</g>
<path d="m56.379 117.53h130.07c1.8125 0 3.5547 0.66016 4.8359 1.8359 1.2812 1.1719 2.0039 2.7656 2.0039 4.4297h-130.07c-1.8164 0-3.5547-0.66016-4.8359-1.8359s-2.0039-2.7695-2.0039-4.4297z" fill="#fff"/>
<g clip-path="url(#b)">
<path transform="scale(.50086 .50086)" d="m112.56 234.65h259.7c3.6188 0 7.0971 1.3181 9.6552 3.6656 2.5581 2.3398 4.0009 5.5218 4.0009 8.8443h-259.7c-3.6265 0-7.0971-1.3181-9.6552-3.6656-2.5581-2.3476-4.0009-5.5296-4.0009-8.8443z" fill="none" stroke="#99c879" stroke-miterlimit="10" stroke-width="6"/>
</g>
<g clip-path="url(#a)">
<path transform="scale(.50086 .50086)" d="m222.98 138.11h-135.59c-1.4974 0-2.9636 0.32756-4.2895 0.9593-1.3258 0.63953-2.4645 1.552-3.3146 2.6751-0.85789 1.1231-1.4038 2.4177-1.5988 3.7748-0.18718 1.3571-0.015599 2.7375 0.49914 4.0244l34.191 85.112h158.77l-35.369-88.045c-1.0061-2.4957-2.8154-4.6483-5.1942-6.1691s-5.2098-2.332-8.111-2.332z" fill="none" stroke="#99c879" stroke-miterlimit="10" stroke-width="5"/>
</g>
<path d="m86.684 100.12c1.6094-1.6367 1.1289-4.4414-1.0781-6.2578-2.2031-1.8203-5.293-1.9648-6.9023-0.32812-1.6094 1.6367-1.125 4.4375 1.0781 6.2578 2.2031 1.8164 5.2969 1.9648 6.9023 0.32812z" fill="#ffb000"/>
<path transform="scale(.50086 .50086)" d="m176.19 196.92c3.2132-3.2679 2.2539-8.8599-2.1525-12.494-4.3987-3.6266-10.568-3.923-13.781-0.65513-3.2132 3.2679-2.2461 8.8599 2.1525 12.494 4.3987 3.6266 10.575 3.923 13.781 0.65513z" fill="none" stroke="#99c879" stroke-miterlimit="10" stroke-width="5"/>
</svg>
