<?xml version="1.0" encoding="UTF-8"?>
<svg xmlns="http://www.w3.org/2000/svg" xmlns:xlink="http://www.w3.org/1999/xlink" width="290pt" height="293pt" viewBox="0 0 290 293" version="1.1">
<defs>
<clipPath id="clip1">
  <path d="M 116 0 L 269.1875 0 L 269.1875 132 L 116 132 Z M 116 0 "/>
</clipPath>
<clipPath id="clip2">
  <path d="M 36.785156 95 L 108 95 L 108 293 L 36.785156 293 Z M 36.785156 95 "/>
</clipPath>
<clipPath id="clip3">
  <path d="M 36.785156 88 L 253 88 L 253 167 L 36.785156 167 Z M 36.785156 88 "/>
</clipPath>
<clipPath id="clip4">
  <path d="M 36.785156 62 L 144 62 L 144 125 L 36.785156 125 Z M 36.785156 62 "/>
</clipPath>
<clipPath id="clip5">
  <path d="M 36.785156 72 L 133 72 L 133 118 L 36.785156 118 Z M 36.785156 72 "/>
</clipPath>
<clipPath id="clip6">
  <path d="M 36.785156 75 L 236 75 L 236 167 L 36.785156 167 Z M 36.785156 75 "/>
</clipPath>
<clipPath id="clip7">
  <path d="M 36.785156 33 L 172 33 L 172 153 L 36.785156 153 Z M 36.785156 33 "/>
</clipPath>
</defs>
<g id="surface1">
<path style=" stroke:none;fill-rule:nonzero;fill:rgb(10.588235%,55.294118%,87.843137%);fill-opacity:0.219608;" d="M 285.179688 160.605469 L 0.222656 257.4375 L 140.335938 82.097656 Z M 285.179688 160.605469 "/>
<path style="fill-rule:nonzero;fill:rgb(100%,100%,100%);fill-opacity:1;stroke-width:5;stroke-linecap:butt;stroke-linejoin:miter;stroke:rgb(100%,69.019608%,0%);stroke-opacity:1;stroke-miterlimit:10;" d="M 449.302128 373.307181 C 449.302128 375.787316 448.225862 378.166062 446.3151 379.920875 C 444.396538 381.675688 441.799461 382.658383 439.093198 382.658383 L 280.453125 382.658383 C 277.746862 382.658383 275.157584 381.675688 273.239022 379.920875 C 271.32826 378.166062 270.251994 375.787316 270.251994 373.307181 C 270.251994 370.827045 271.32826 368.448299 273.239022 366.693486 C 275.157584 364.938673 277.746862 363.955978 280.453125 363.955978 L 439.093198 363.955978 C 441.799461 363.955978 444.396538 364.938673 446.3151 366.693486 C 448.225862 368.448299 449.302128 370.827045 449.302128 373.307181 Z M 449.302128 373.307181 " transform="matrix(0.500864,0,0,0.500855,0,0)"/>
<path style="fill-rule:nonzero;fill:rgb(100%,100%,100%);fill-opacity:1;stroke-width:5;stroke-linecap:butt;stroke-linejoin:miter;stroke:rgb(100%,69.019608%,0%);stroke-opacity:1;stroke-miterlimit:10;" d="M 392.564184 397.726376 L 332.84701 397.726376 C 330.936247 397.726376 329.095676 397.03225 327.738645 395.792182 C 326.381614 394.544315 325.625108 392.859695 325.625108 391.104882 L 325.625108 382.658383 L 399.786086 382.658383 L 399.786086 391.112681 C 399.778287 392.867494 399.021781 394.544315 397.664749 395.792182 C 396.315517 397.03225 394.474946 397.726376 392.564184 397.726376 Z M 392.564184 397.726376 " transform="matrix(0.500864,0,0,0.500855,0,0)"/>
<path style="fill-rule:nonzero;fill:rgb(100%,100%,100%);fill-opacity:1;stroke-width:5;stroke-linecap:butt;stroke-linejoin:miter;stroke:rgb(100%,69.019608%,0%);stroke-opacity:1;stroke-miterlimit:10;" d="M 354.87927 512.335151 L 370.500727 512.335151 L 370.500727 397.726376 L 354.87927 397.726376 Z M 354.87927 512.335151 " transform="matrix(0.500864,0,0,0.500855,0,0)"/>
<path style="fill-rule:nonzero;fill:rgb(100%,100%,100%);fill-opacity:1;stroke-width:5;stroke-linecap:butt;stroke-linejoin:miter;stroke:rgb(100%,69.019608%,0%);stroke-opacity:1;stroke-miterlimit:10;" d="M 353.849798 541.901797 L 371.553596 541.901797 C 375.000768 541.901797 377.80062 539.335871 377.80062 536.177208 L 377.80062 518.05974 C 377.80062 514.901077 375.000768 512.335151 371.553596 512.335151 L 353.849798 512.335151 C 350.394828 512.335151 347.602775 514.901077 347.602775 518.05974 L 347.602775 536.177208 C 347.602775 539.335871 350.394828 541.901797 353.849798 541.901797 Z M 353.849798 541.901797 " transform="matrix(0.500864,0,0,0.500855,0,0)"/>
<path style="fill:none;stroke-width:5;stroke-linecap:butt;stroke-linejoin:miter;stroke:rgb(60%,78.431373%,47.843137%);stroke-opacity:1;stroke-miterlimit:10;" d="M 431.832301 568.528157 C 431.832301 561.46991 428.775081 554.692433 423.323559 549.700965 C 417.872037 544.709498 410.478556 541.901797 402.773114 541.901797 L 322.614682 541.901797 C 314.90924 541.901797 307.51576 544.709498 302.072037 549.700965 C 296.620515 554.692433 293.555496 561.46991 293.555496 568.528157 " transform="matrix(0.500864,0,0,0.500855,0,0)"/>
<path style="fill-rule:nonzero;fill:rgb(100%,100%,100%);fill-opacity:1;stroke-width:5;stroke-linecap:butt;stroke-linejoin:miter;stroke:rgb(100%,69.019608%,0%);stroke-opacity:1;stroke-miterlimit:10;" d="M 432.362635 582.363881 C 438.789036 582.363881 443.998788 577.59079 443.998788 571.694619 C 443.998788 565.806247 438.789036 561.025357 432.362635 561.025357 C 425.928435 561.025357 420.718683 565.806247 420.718683 571.694619 C 420.718683 577.59079 425.928435 582.363881 432.362635 582.363881 Z M 432.362635 582.363881 " transform="matrix(0.500864,0,0,0.500855,0,0)"/>
<path style="fill-rule:nonzero;fill:rgb(100%,100%,100%);fill-opacity:1;stroke-width:5;stroke-linecap:butt;stroke-linejoin:miter;stroke:rgb(100%,69.019608%,0%);stroke-opacity:1;stroke-miterlimit:10;" d="M 292.822387 582.363881 C 299.248788 582.363881 304.466339 577.59079 304.466339 571.694619 C 304.466339 565.806247 299.248788 561.025357 292.822387 561.025357 C 286.395986 561.025357 281.178435 565.806247 281.178435 571.694619 C 281.178435 577.59079 286.395986 582.363881 292.822387 582.363881 Z M 292.822387 582.363881 " transform="matrix(0.500864,0,0,0.500855,0,0)"/>
<path style="fill-rule:nonzero;fill:rgb(100%,100%,100%);fill-opacity:1;stroke-width:5;stroke-linecap:butt;stroke-linejoin:miter;stroke:rgb(100%,69.019608%,0%);stroke-opacity:1;stroke-miterlimit:10;" d="M 363.115046 582.363881 C 369.541447 582.363881 374.751199 577.59079 374.751199 571.694619 C 374.751199 565.806247 369.541447 561.025357 363.115046 561.025357 C 356.688645 561.025357 351.471094 565.806247 351.471094 571.694619 C 351.471094 577.59079 356.688645 582.363881 363.115046 582.363881 Z M 363.115046 582.363881 " transform="matrix(0.500864,0,0,0.500855,0,0)"/>
<path style=" stroke:none;fill-rule:nonzero;fill:rgb(100%,81.176471%,78.823529%);fill-opacity:1;" d="M 105.863281 263.824219 C 103.261719 269.480469 100.890625 274.117188 99.082031 277.160156 C 97.738281 279.421875 95.398438 292.617188 83.085938 287.300781 C 82.652344 287.113281 87.945312 285.863281 89.613281 274.945312 C 90.199219 271.121094 90.734375 267.429688 91.222656 263.871094 C 96.035156 264.171875 102.144531 263.988281 105.863281 263.824219 Z M 105.863281 263.824219 "/>
<path style=" stroke:none;fill-rule:nonzero;fill:rgb(24.705882%,30.196078%,47.45098%);fill-opacity:1;" d="M 103.203125 292.617188 C 103.203125 292.617188 108.15625 276.902344 101.53125 274.503906 C 99.414062 273.738281 96.847656 275.675781 96.160156 282.289062 C 95.5625 288.070312 86.339844 288.96875 85.472656 285.230469 C 85.472656 285.230469 74.167969 287.339844 74.167969 292.617188 Z M 103.203125 292.617188 "/>
<path style=" stroke:none;fill-rule:nonzero;fill:rgb(60%,78.431373%,47.843137%);fill-opacity:1;" d="M 109.207031 263.644531 C 109.207031 263.644531 95.519531 264.542969 88.316406 263.601562 C 88.316406 263.601562 78.757812 172.222656 80.1875 162.820312 C 81.90625 151.511719 123 141.484375 144.242188 138.308594 L 148.15625 122.066406 C 148.15625 122.066406 176.898438 121.597656 193.128906 121.597656 C 193.128906 121.597656 210.511719 149.9375 208.722656 168.675781 C 206.929688 187.414062 169.453125 183.160156 119.398438 183.160156 C 119.398438 183.160156 134.660156 211.386719 109.207031 263.644531 Z M 109.207031 263.644531 "/>
<path style=" stroke:none;fill-rule:nonzero;fill:rgb(100%,81.176471%,78.823529%);fill-opacity:1;" d="M 150.914062 264.269531 C 147.105469 264.578125 143.277344 264.550781 139.472656 264.183594 C 140.75 268.738281 141.933594 273.085938 142.871094 276.964844 C 143.476562 279.457031 139.582031 282.820312 138.472656 285.269531 L 138.5625 285.230469 C 143.671875 284.484375 150.53125 288.921875 149.828125 281.996094 C 149.121094 275.074219 150.203125 273.347656 150.914062 264.269531 Z M 150.914062 264.269531 "/>
<path style=" stroke:none;fill-rule:nonzero;fill:rgb(24.705882%,30.196078%,47.45098%);fill-opacity:1;" d="M 149.671875 276.902344 C 151.429688 276.902344 154.289062 279.816406 154.003906 284.480469 C 153.84375 287.265625 153.214844 290.007812 152.140625 292.617188 L 132.371094 292.617188 C 132.71875 287.59375 138.5625 285.230469 138.5625 285.230469 C 143.671875 284.484375 150.277344 288.921875 149.570312 281.996094 Z M 149.671875 276.902344 "/>
<path style=" stroke:none;fill-rule:nonzero;fill:rgb(60%,78.431373%,47.843137%);fill-opacity:1;" d="M 165.148438 147.089844 C 165.148438 147.089844 121.582031 154.304688 116.632812 166.261719 C 111.6875 178.21875 134.769531 263.636719 134.769531 263.636719 C 148.15625 265.511719 155.019531 263.636719 155.019531 263.636719 C 168.941406 205.140625 152.628906 185.738281 152.628906 185.738281 C 185.070312 184.472656 205.542969 187.292969 208.722656 168.691406 C 209.738281 162.78125 202.488281 140.1875 165.148438 147.089844 Z M 165.148438 147.089844 "/>
<path style="fill:none;stroke-width:5;stroke-linecap:butt;stroke-linejoin:miter;stroke:rgb(100%,100%,100%);stroke-opacity:1;stroke-miterlimit:10;" d="M 328.198788 293.677674 C 328.198788 293.677674 241.216204 308.082738 231.334833 331.955991 C 221.453462 355.829245 267.54573 526.373653 267.54573 526.373653 " transform="matrix(0.500864,0,0,0.500855,0,0)"/>
<path style=" stroke:none;fill-rule:nonzero;fill:rgb(82.745098%,65.882353%,90.588235%);fill-opacity:1;" d="M 154.804688 108.8125 C 157.390625 103.449219 145.898438 96.402344 134.132812 99.210938 C 134.132812 99.210938 138.101562 55.953125 147.398438 50.503906 C 156.421875 45.214844 158.59375 70.125 158.902344 76.207031 C 158.890625 76.207031 160.558594 99.738281 154.804688 108.8125 Z M 154.804688 108.8125 "/>
<path style=" stroke:none;fill-rule:nonzero;fill:rgb(100%,75.294118%,71.764706%);fill-opacity:1;" d="M 153.792969 110.117188 C 159.488281 105.433594 147.707031 95.902344 134.132812 99.210938 C 125.640625 100.417969 92.632812 106.867188 89.527344 108.34375 C 86.496094 109.585938 77.742188 113.621094 76.628906 114.84375 C 75.222656 116.390625 75.007812 120.480469 75.09375 121.019531 C 75.179688 121.558594 76.332031 124.363281 76.332031 124.363281 C 76.332031 124.363281 78.542969 124.152344 78.261719 121.949219 C 77.925781 119.328125 80.472656 118.515625 82.175781 117.8125 C 82.886719 117.523438 84.730469 117.640625 85.054688 118.628906 C 85.378906 119.613281 82.6875 120.808594 82.242188 121.523438 C 81.582031 122.605469 82.347656 123.816406 82.363281 123.839844 C 82.378906 123.867188 86.46875 121.824219 87.257812 121.4375 C 87.984375 121.085938 91.398438 117.433594 92.84375 114.21875 C 92.855469 114.21875 143.789062 118.355469 153.792969 110.117188 Z M 153.792969 110.117188 "/>
<path style=" stroke:none;fill-rule:nonzero;fill:rgb(100%,69.019608%,0%);fill-opacity:1;" d="M 147.46875 27.230469 C 146.511719 25.097656 142.539062 14.054688 148.976562 9.285156 C 155.410156 4.519531 163.902344 -0.375 174.171875 0.386719 C 184.441406 1.148438 187.304688 13.679688 193.125 15.691406 C 198.945312 17.707031 206.046875 15.316406 212.757812 20.84375 C 219.46875 26.375 212.5 35.074219 219.339844 39.71875 C 226.175781 44.363281 232.765625 38.488281 239.617188 46.695312 C 247.46875 56.105469 236 66.980469 247.148438 67.917969 C 259.472656 68.953125 266.910156 88.074219 261.617188 100.765625 L 197.414062 100.765625 C 156.417969 94.960938 147.46875 27.230469 147.46875 27.230469 Z M 147.46875 27.230469 "/>
<g clip-path="url(#clip1)" clip-rule="nonzero">
<path style="fill:none;stroke-width:5;stroke-linecap:butt;stroke-linejoin:miter;stroke:rgb(100%,69.019608%,0%);stroke-opacity:1;stroke-miterlimit:10;" d="M 303.265288 17.220563 C 315.759335 7.081645 330.281129 0.335364 350.831573 1.255666 C 371.374219 2.175968 379.274636 23.147931 391.035574 26.90713 C 402.796511 30.666329 417.622468 25.362895 431.411153 36.258332 C 445.207637 47.161569 431.925889 66.526904 445.932947 75.612935 C 459.947804 84.698965 472.636827 72.290489 486.909052 88.668742 C 503.271417 107.456938 481.176765 128.889052 503.48979 130.12912 C 528.165921 131.509572 544.286517 160.093523 531.901657 192.499067 " transform="matrix(0.500864,0,0,0.500855,0,0)"/>
</g>
<path style=" stroke:none;fill-rule:nonzero;fill:rgb(82.745098%,65.882353%,90.588235%);fill-opacity:1;" d="M 147.960938 121.902344 C 147.960938 121.902344 144.324219 94.71875 142.398438 93.292969 C 138.074219 90.09375 134.636719 85.507812 136.441406 79.171875 C 137.460938 75.59375 145.679688 51.886719 147.429688 50.378906 C 149.183594 48.875 160.671875 45.109375 160.671875 45.109375 L 193.136719 45.109375 C 196.832031 46.238281 208.4375 50.0625 211.210938 53.957031 C 224.757812 72.964844 229.089844 103.457031 229.089844 103.457031 L 212.246094 103.457031 C 212.246094 103.457031 204.136719 86.78125 201.253906 86.59375 C 198.371094 86.402344 192.96875 121.667969 192.96875 121.667969 C 192.96875 121.667969 174.5 126.363281 147.960938 121.902344 Z M 147.960938 121.902344 "/>
<path style="fill:none;stroke-width:5;stroke-linecap:butt;stroke-linejoin:miter;stroke:rgb(100%,100%,100%);stroke-opacity:1;stroke-miterlimit:10;" d="M 294.904728 243.388639 C 294.904728 243.388639 287.636032 189.114228 283.79111 186.267531 C 275.165383 179.880013 267.7875 170.255839 271.390652 157.605589 " transform="matrix(0.500864,0,0,0.500855,0,0)"/>
<path style="fill:none;stroke-width:5;stroke-linecap:butt;stroke-linejoin:miter;stroke:rgb(100%,100%,100%);stroke-opacity:1;stroke-miterlimit:10;" d="M 340.872212 96.662889 C 340.872212 96.662889 311.017524 148.862721 318.418804 248.068139 " transform="matrix(0.500864,0,0,0.500855,0,0)"/>
<path style="fill:none;stroke-width:5;stroke-linecap:butt;stroke-linejoin:miter;stroke:rgb(100%,100%,100%);stroke-opacity:1;stroke-miterlimit:10;" d="M 337.308055 140.852976 C 339.476185 140.852976 341.238766 139.238548 341.238766 137.24976 C 341.238766 135.253173 339.476185 133.638745 337.308055 133.638745 C 335.132126 133.638745 333.369545 135.253173 333.369545 137.24976 C 333.369545 139.238548 335.132126 140.852976 337.308055 140.852976 Z M 337.308055 140.852976 " transform="matrix(0.500864,0,0,0.500855,0,0)"/>
<path style="fill:none;stroke-width:5;stroke-linecap:butt;stroke-linejoin:miter;stroke:rgb(100%,100%,100%);stroke-opacity:1;stroke-miterlimit:10;" d="M 331.911126 167.292156 C 334.087055 167.292156 335.849636 165.677728 335.849636 163.68894 C 335.849636 161.700152 334.087055 160.085724 331.911126 160.085724 C 329.735197 160.085724 327.972616 161.700152 327.972616 163.68894 C 327.972616 165.677728 329.735197 167.292156 331.911126 167.292156 Z M 331.911126 167.292156 " transform="matrix(0.500864,0,0,0.500855,0,0)"/>
<path style="fill:none;stroke-width:5;stroke-linecap:butt;stroke-linejoin:miter;stroke:rgb(100%,100%,100%);stroke-opacity:1;stroke-miterlimit:10;" d="M 329.025485 193.824925 C 331.201414 193.824925 332.963995 192.210498 332.963995 190.22171 C 332.963995 188.232922 331.201414 186.618494 329.025485 186.618494 C 326.857355 186.618494 325.094774 188.232922 325.094774 190.22171 C 325.094774 192.210498 326.857355 193.824925 329.025485 193.824925 Z M 329.025485 193.824925 " transform="matrix(0.500864,0,0,0.500855,0,0)"/>
<path style=" stroke:none;fill-rule:nonzero;fill:rgb(100%,81.176471%,78.823529%);fill-opacity:1;" d="M 227.222656 110.871094 C 218.882812 118.90625 164.957031 108.160156 164.957031 108.160156 C 164.957031 108.160156 162.144531 112.230469 158.851562 112.375 C 155.558594 112.523438 152.445312 111.457031 150.773438 112.75 C 149.101562 114.042969 147.414062 116.292969 146.105469 116.523438 C 144.550781 116.816406 142.957031 116.878906 141.378906 116.707031 C 141.941406 115.292969 142.582031 113.910156 143.308594 112.5625 C 142.3125 113.300781 141.078125 114.652344 140.355469 115.21875 C 140.054688 115.472656 139.667969 115.628906 139.257812 115.660156 C 138.847656 115.691406 138.4375 115.597656 138.097656 115.386719 C 138.097656 115.386719 140.253906 112.367188 141.105469 111.558594 C 141.957031 110.75 144.566406 108.722656 146.015625 108.261719 C 147.726562 107.589844 157.738281 103.097656 162.734375 102.351562 C 168.035156 101.566406 210.945312 98.917969 210.945312 98.917969 C 226.46875 98.910156 234.226562 104.125 227.222656 110.871094 Z M 227.222656 110.871094 "/>
<path style="fill:none;stroke-width:3;stroke-linecap:round;stroke-linejoin:miter;stroke:rgb(100%,69.019608%,68.627451%);stroke-opacity:1;stroke-miterlimit:10;" d="M 285.491298 232.079845 C 285.491298 232.079845 291.683728 222.221696 293.750471 221.176608 C 297.400418 219.336004 302.165625 216.918262 302.165625 216.918262 " transform="matrix(0.500864,0,0,0.500855,0,0)"/>
<path style="fill:none;stroke-width:3;stroke-linecap:round;stroke-linejoin:miter;stroke:rgb(100%,69.019608%,68.627451%);stroke-opacity:1;stroke-miterlimit:10;" d="M 289.772966 231.900464 C 289.772966 231.900464 295.240086 223.797128 297.306829 222.75204 C 300.956775 220.911436 305.721983 218.485895 305.721983 218.485895 " transform="matrix(0.500864,0,0,0.500855,0,0)"/>
<path style=" stroke:none;fill-rule:nonzero;fill:rgb(100%,81.176471%,78.823529%);fill-opacity:1;" d="M 173.820312 26.863281 C 173.820312 26.863281 178.335938 39.839844 193.125 45.109375 C 193.125 45.109375 172.378906 53.394531 160.660156 45.109375 L 160.660156 27.238281 Z M 173.820312 26.863281 "/>
<path style=" stroke:none;fill-rule:nonzero;fill:rgb(100%,75.294118%,71.764706%);fill-opacity:1;" d="M 163.65625 46.800781 C 162.601562 46.332031 161.601562 45.765625 160.671875 45.109375 L 160.671875 27.238281 L 173.820312 26.863281 C 173.820312 26.863281 173.945312 27.226562 174.226562 27.863281 C 175.570312 33.339844 171.941406 44.707031 163.65625 46.800781 Z M 163.65625 46.800781 "/>
<path style=" stroke:none;fill-rule:nonzero;fill:rgb(100%,81.176471%,78.823529%);fill-opacity:1;" d="M 173.472656 28.859375 C 173.335938 33.128906 164.574219 43.167969 159.78125 43.167969 C 155.808594 43.167969 148.390625 32.1875 147.457031 27.238281 C 146.5 22.148438 147.46875 13.117188 155.394531 12.988281 C 160.292969 12.914062 162.808594 17.128906 164.277344 22.015625 C 166.066406 27.917969 171.554688 26.59375 171.554688 26.59375 C 171.554688 26.59375 173.128906 23.3125 175.320312 24.953125 C 177.507812 26.59375 173.472656 28.859375 173.472656 28.859375 Z M 173.472656 28.859375 "/>
<g clip-path="url(#clip2)" clip-rule="nonzero">
<path style="fill:none;stroke-width:5;stroke-linecap:butt;stroke-linejoin:miter;stroke:rgb(100%,69.019608%,0%);stroke-opacity:1;stroke-miterlimit:10;" d="M 92.137742 584.235682 L 117.656169 262.114441 L 143.174596 584.914209 " transform="matrix(0.500864,0,0,0.500855,0,0)"/>
</g>
<path style=" stroke:none;fill-rule:nonzero;fill:rgb(100%,100%,100%);fill-opacity:1;" d="M 45.023438 131.28125 L 213.308594 131.28125 C 214.359375 131.28125 215.367188 130.898438 216.109375 130.21875 C 216.855469 129.535156 217.273438 128.613281 217.273438 127.648438 C 217.273438 126.6875 216.855469 125.761719 216.113281 125.078125 C 215.367188 124.398438 214.359375 124.015625 213.308594 124.015625 L 45.023438 124.015625 Z M 45.023438 131.28125 "/>
<g clip-path="url(#clip3)" clip-rule="nonzero">
<path style="fill:none;stroke-width:5;stroke-linecap:butt;stroke-linejoin:miter;stroke:rgb(100%,69.019608%,0%);stroke-opacity:1;stroke-miterlimit:10;" d="M 89.891622 262.114441 L 425.881641 262.114441 C 427.97958 262.114441 429.99173 261.350123 431.473545 259.993067 C 432.96316 258.628213 433.797656 256.787609 433.797656 254.861215 C 433.797656 252.942619 432.96316 251.094217 431.481344 249.729362 C 429.99173 248.372307 427.97958 247.607988 425.881641 247.607988 L 89.891622 247.607988 " transform="matrix(0.500864,0,0,0.500855,0,0)"/>
</g>
<g clip-path="url(#clip4)" clip-rule="nonzero">
<path style="fill:none;stroke-width:1;stroke-linecap:butt;stroke-linejoin:miter;stroke:rgb(0%,0%,0%);stroke-opacity:1;stroke-miterlimit:10;" d="M 222.982072 138.107669 L 87.395932 138.107669 C 85.898518 138.107669 84.432301 138.435234 83.106466 139.066966 C 81.78063 139.706498 80.641972 140.619001 79.791878 141.742081 C 78.933984 142.865161 78.388052 144.159823 78.193077 145.516878 C 78.0059 146.873933 78.177478 148.254386 78.692214 149.541249 L 112.883163 234.65357 L 271.655819 234.65357 L 236.287217 146.608762 C 235.281142 144.113028 233.471767 141.960458 231.093063 140.43962 C 228.714359 138.918782 225.883311 138.107669 222.982072 138.107669 Z M 222.982072 138.107669 " transform="matrix(0.500864,0,0,0.500855,0,0)"/>
</g>
<path style=" stroke:none;fill-rule:nonzero;fill:rgb(100%,100%,100%);fill-opacity:1;" d="M 112.292969 69.171875 L 44.132812 69.171875 C 40.980469 69.171875 38.792969 72.230469 39.882812 75.121094 L 54.707031 114.5625 C 55.003906 115.410156 55.582031 116.152344 56.363281 116.683594 C 57.140625 117.214844 58.082031 117.511719 59.054688 117.527344 L 135.300781 117.527344 L 118.792969 73.597656 C 117.792969 70.9375 115.199219 69.171875 112.292969 69.171875 Z M 112.292969 69.171875 "/>
<g clip-path="url(#clip5)" clip-rule="nonzero">
<path style=" stroke:none;fill-rule:nonzero;fill:rgb(38.431373%,63.921569%,21.568627%);fill-opacity:0.14902;" d="M 109.480469 72.125 L 41.320312 72.125 C 40.589844 72.125 39.871094 72.285156 39.226562 72.59375 C 38.578125 72.902344 38.023438 73.351562 37.605469 73.898438 C 37.1875 74.449219 36.921875 75.082031 36.828125 75.746094 C 36.734375 76.40625 36.816406 77.082031 37.070312 77.710938 L 51.894531 114.746094 C 52.222656 115.558594 52.8125 116.265625 53.589844 116.761719 C 54.367188 117.257812 55.292969 117.527344 56.242188 117.527344 L 132.488281 117.527344 L 115.984375 76.277344 C 115.492188 75.058594 114.605469 74.007812 113.445312 73.265625 C 112.28125 72.523438 110.898438 72.125 109.480469 72.125 Z M 109.480469 72.125 "/>
</g>
<path style=" stroke:none;fill-rule:nonzero;fill:rgb(100%,100%,100%);fill-opacity:1;" d="M 56.378906 117.527344 L 186.453125 117.527344 C 188.265625 117.527344 190.007812 118.1875 191.289062 119.363281 C 192.570312 120.535156 193.292969 122.128906 193.292969 123.792969 L 63.21875 123.792969 C 61.402344 123.792969 59.664062 123.132812 58.382812 121.957031 C 57.101562 120.78125 56.378906 119.1875 56.378906 117.527344 Z M 56.378906 117.527344 "/>
<g clip-path="url(#clip6)" clip-rule="nonzero">
<path style="fill:none;stroke-width:6;stroke-linecap:butt;stroke-linejoin:miter;stroke:rgb(60%,78.431373%,47.843137%);stroke-opacity:1;stroke-miterlimit:10;" d="M 112.563402 234.65357 L 372.263308 234.65357 C 375.882058 234.65357 379.360426 235.97163 381.918508 238.319179 C 384.476589 240.65893 385.91941 243.84099 385.91941 247.163436 L 126.219504 247.163436 C 122.592955 247.163436 119.122387 245.845376 116.564305 243.497827 C 114.006223 241.150277 112.563402 237.968217 112.563402 234.65357 Z M 112.563402 234.65357 " transform="matrix(0.500864,0,0,0.500855,0,0)"/>
</g>
<g clip-path="url(#clip7)" clip-rule="nonzero">
<path style="fill:none;stroke-width:5;stroke-linecap:butt;stroke-linejoin:miter;stroke:rgb(60%,78.431373%,47.843137%);stroke-opacity:1;stroke-miterlimit:10;" d="M 222.982072 138.107669 L 87.395932 138.107669 C 85.898518 138.107669 84.432301 138.435234 83.106466 139.066966 C 81.78063 139.706498 80.641972 140.619001 79.791878 141.742081 C 78.933984 142.865161 78.388052 144.159823 78.193077 145.516878 C 78.0059 146.873933 78.177478 148.254386 78.692214 149.541249 L 112.883163 234.65357 L 271.655819 234.65357 L 236.287217 146.608762 C 235.281142 144.113028 233.471767 141.960458 231.093063 140.43962 C 228.714359 138.918782 225.883311 138.107669 222.982072 138.107669 Z M 222.982072 138.107669 " transform="matrix(0.500864,0,0,0.500855,0,0)"/>
</g>
<path style=" stroke:none;fill-rule:nonzero;fill:rgb(100%,69.019608%,0%);fill-opacity:1;" d="M 86.683594 100.121094 C 88.292969 98.484375 87.8125 95.679688 85.605469 93.863281 C 83.402344 92.042969 80.3125 91.898438 78.703125 93.535156 C 77.09375 95.171875 77.578125 97.972656 79.78125 99.792969 C 81.984375 101.609375 85.078125 101.757812 86.683594 100.121094 Z M 86.683594 100.121094 "/>
<path style="fill:none;stroke-width:5;stroke-linecap:butt;stroke-linejoin:miter;stroke:rgb(60%,78.431373%,47.843137%);stroke-opacity:1;stroke-miterlimit:10;" d="M 176.187891 196.921195 C 179.401091 193.653344 178.44181 188.06134 174.035358 184.426928 C 169.636705 180.800315 163.467672 180.503946 160.254472 183.771798 C 157.041272 187.039649 158.008351 192.631653 162.407004 196.266065 C 166.805657 199.892678 172.982489 200.189047 176.187891 196.921195 Z M 176.187891 196.921195 " transform="matrix(0.500864,0,0,0.500855,0,0)"/>
</g>
</svg>
